<svg width="360" height="640" viewBox="0 0 360 640" fill="none" xmlns="http://www.w3.org/2000/svg">
<g clip-path="url(#clip0_510_2144)">
<rect width="360" height="640" fill="black"/>
<g clip-path="url(#clip1_510_2144)">
<path d="M1182.59 -196.452H-827.536V834.504H1182.59V-196.452Z" fill="black"/>
<path d="M-227.217 686.59H-200.301V673.094H-213.472V659.456H-186.663V645.817H-172.847L-172.955 645.709V659.133H-145.895V618.718H-159.067V605.151H-132.294V618.611H-118.478L-118.585 618.504L-118.478 645.781C-122.952 645.781 -127.426 645.781 -131.9 645.781V659.098H-118.585V645.674C-114.04 645.709 -109.458 645.745 -104.912 645.781L-105.02 645.674V659.062H-91.3468V645.674L-91.4542 645.781C-82.3628 645.745 -73.2714 645.709 -64.18 645.674C-64.18 654.694 -64.18 663.68 -64.18 673.094H-77.6381V686.303H-50.4713V659.205H-37.2637V645.781H-64.2874V618.611H-37.0132L-37.1206 618.504V632.071H-23.5909V659.169H3.61179V672.736H44.4157V659.491H58.1602V618.539L58.0528 618.647H71.5825V631.999H98.6777V618.754H85.3269V604.972L85.2196 605.08H98.7493V591.62H112.315V618.325H125.88V605.044H139.661L139.553 604.937V631.928H153.226V604.937L153.119 605.044H166.684V618.396H180.178V605.044H193.994L193.887 604.937V632.285H166.792V645.817C157.772 645.817 148.788 645.817 139.589 645.817V659.42H126.167V672.915C130.784 672.915 135.187 672.915 139.553 672.915C139.553 677.39 139.553 681.864 139.553 686.339H152.868V673.023H139.446V659.312H166.648V645.709H180.429V659.169H193.923V645.817H207.488L207.381 645.709V659.169C221.197 659.169 234.798 659.169 248.364 659.169C248.328 663.787 248.292 668.405 248.256 673.023H221.269V713.473H275.208C275.208 708.784 275.208 704.381 275.208 699.978C279.826 700.014 284.443 700.049 289.06 700.085V713.688H316.263V740.643H356.816V713.939H343.251V727.148H329.721V713.795C324.961 713.795 320.558 713.795 316.156 713.795C316.156 709.321 316.156 704.846 316.156 700.192H288.953C288.953 695.718 288.953 691.279 288.953 686.769H275.316V700.085H234.798V686.482H248.149V672.915C257.133 672.915 266.117 672.915 275.173 672.915V659.276H248.256V632.357H261.679V645.495H275.28V632.106H302.626V645.53H315.941V632.214H302.519V618.647H316.048V605.259H343.108V618.539H329.936V632.035H343.43V659.42H302.841V686.375H316.263V673.237H329.9V686.339H343.322V659.312C347.868 659.348 352.45 659.384 356.995 659.42L356.888 659.312V672.915C361.791 672.915 366.158 672.915 370.561 672.915V686.339H383.876V673.023H370.453C370.453 668.476 370.525 663.894 370.561 659.348L370.453 659.456H384.126V645.781L384.019 645.888H397.692L397.585 645.781V686.733H411.293V700.014H424.93V686.446H438.209V672.951H424.859V659.384L424.751 659.491H465.627V645.781L465.519 645.888H478.906V632.214H465.519L465.627 632.321V605.044L465.519 605.151H479.085V618.504H506.216V605.295H519.853V618.575H533.311V632.106H506.574V645.745H519.746V673.13H533.562L533.454 673.023V686.411H547.127V673.023L547.02 673.13H560.693V659.456L560.585 659.563H601.282V645.96H614.883V632.464H655.651V591.548H669.432L669.324 591.441V605.115H682.997L682.89 605.008V618.826H669.217V645.924H628.843V659.241H683.033V632.285H696.599L696.491 632.178V645.924H710.307V659.456H737.367L737.259 659.348V673.166H723.909V686.375H750.968V659.348L750.861 659.456H764.39V618.826H791.521V632.071H778.314V645.709H791.521V659.491H805.302L805.194 659.384C805.23 663.93 805.266 668.512 805.302 673.058H764.712V700.049H778.099V686.518H805.23V672.951H832.361V618.826H845.855V645.781C850.687 645.781 855.161 645.781 859.671 645.781C859.671 650.256 859.671 654.73 859.671 659.205H872.986V645.888H859.6V632.357H873.308V618.611L873.201 618.718C877.747 618.718 882.328 618.718 886.874 618.718L886.766 618.611V645.602H900.439V618.611L900.332 618.718H914.005L913.897 618.611V631.999H927.57V618.611L927.463 618.718H954.737V591.441L954.63 591.548H968.16V618.718H981.904L981.797 618.611V645.781H995.47L995.326 659.348C986.307 659.348 977.287 659.348 968.303 659.348V632.536H940.921V645.924H927.535C927.535 650.685 927.535 655.088 927.535 659.456C923.06 659.456 918.586 659.456 914.112 659.456V700.157H927.499V727.184H940.814V700.264H927.391C927.391 686.625 927.391 673.023 927.391 659.384H941.136V672.772H954.701V659.241C959.39 659.241 963.864 659.241 968.339 659.241C968.303 668.369 968.267 677.497 968.231 686.661C963.757 686.661 959.283 686.661 954.809 686.661V713.545H968.124V686.554H1008.71V672.844H995.183C995.183 668.083 995.183 663.679 995.183 659.276C999.729 659.276 1004.27 659.276 1008.93 659.276V645.781H1022.71V659.491H1063.4L1063.3 659.384V673.166H1077.04V686.661H1090.29V713.974H1077.11C1077.11 718.735 1077.11 723.138 1077.11 727.541C1068.09 727.541 1059.07 727.541 1049.7 727.541V714.046H1022.74V727.434H1036.2V741.001C1031.73 741.001 1027.25 741.001 1022.78 741.001V754.318H1036.09V740.894H1077.01V727.434H1104.24V700.085H1117.77V659.348L1117.67 659.456H1144.65V686.554H1131.45V700.049H1144.83V713.581H1158.33V672.915H1172.11V686.554H1199.24V740.93C1194.69 740.93 1190.15 740.965 1185.6 741.001V713.974H1172.29V740.894H1185.71V754.533H1199.24V972.035C519.567 972.035 -160.105 972.035 -839.741 972.035V672.987H-825.639V659.384H-838.99V645.781H-811.93V659.169H-798.15V632.142L-798.257 632.25H-757.525V645.674H-743.995V659.456H-703.012L-703.12 659.348V672.736H-689.447V659.348L-689.554 659.456H-675.881V645.781L-675.989 645.888C-671.443 645.853 -666.861 645.817 -662.316 645.781C-662.316 650.256 -662.316 654.73 -662.316 659.205H-649.001V645.888H-662.423C-662.423 632.321 -662.423 618.718 -662.423 605.151L-662.53 605.259C-657.949 605.223 -653.332 605.187 -648.75 605.115L-648.858 605.008V631.999H-621.655V618.718H-608.161V591.513H-594.381L-594.488 591.405V604.972H-581.03V618.468H-594.381V632.25C-598.855 632.25 -603.365 632.25 -607.767 632.25V659.205C-594.023 659.205 -580.565 659.205 -567.106 659.205C-567.106 663.751 -567.106 668.297 -567.106 672.951H-553.613V686.733H-567.071V699.978H-526.696V659.456H-540.119V646.032H-553.613V659.42C-558.122 659.384 -562.668 659.348 -567.178 659.276V645.602H-594.488V632.106H-512.844V645.53H-499.529V632.214H-512.952V605.259H-499.422V618.647H-485.678L-485.785 618.539V659.133H-472.005V645.709H-431.344C-431.344 654.73 -431.344 663.715 -431.344 672.915H-417.743V686.339H-404.249V672.915H-390.826V645.638H-404.141V632.106L-404.249 632.214H-377.118V605.151H-363.624V632.071H-349.987V645.602H-336.206V672.987H-349.987V686.625H-363.23V699.87H-336.278V672.844H-322.856V632.25H-335.956V591.405H-309.004L-309.111 591.298V604.793H-322.426V618.575H-295.402L-295.51 618.468V632.25H-281.694V659.276H-254.634V672.7H-241.319V659.384H-254.742C-254.742 654.838 -254.67 650.256 -254.634 645.709L-254.742 645.817H-227.467L-227.575 645.709C-227.575 658.131 -227.575 670.553 -227.503 682.974C-227.503 684.227 -227.396 685.444 -227.324 686.697C-231.798 686.697 -236.308 686.697 -241.14 686.697V700.264H-254.527V713.545C-245.364 713.545 -236.344 713.545 -227.36 713.545C-227.396 718.163 -227.432 722.745 -227.467 727.363C-231.941 727.363 -236.416 727.363 -240.89 727.363V740.679H-227.575V727.255H-214.152V713.652H-227.467C-227.467 704.631 -227.467 695.611 -227.467 686.625L-227.217 686.59ZM262.001 754.425H275.423V741.144H262.108C262.108 745.762 262.108 750.165 262.108 754.533H248.686V767.849H262.001V754.425V754.425ZM126.059 754.425H139.482V741.144H126.167V754.533H112.744V767.849H126.059V754.425V754.425ZM-771.019 754.425V767.849H-757.704V754.533H-771.126V741.109H-784.405V754.425C-779.788 754.425 -775.386 754.425 -771.019 754.425ZM846.499 727.219H860.208V713.76H873.523V700.014H860.172V673.058H846.499V686.59H833.005V700.121H819.583V713.437H832.898V700.014C842.025 699.978 851.152 699.942 860.28 699.906C860.28 704.56 860.28 709.178 860.28 713.831H846.571C846.571 718.556 846.571 722.924 846.571 727.327H833.149V740.643H846.464V727.219H846.499ZM-186.592 713.616H-173.169V700.336H-186.484C-186.484 704.954 -186.484 709.357 -186.484 713.724H-199.907V727.04H-186.592V713.616V713.616ZM-390.504 713.616H-377.082V700.336H-390.397V713.724H-403.819V727.04H-390.504V713.616V713.616ZM-444.874 713.616C-440.328 713.616 -435.746 713.616 -431.201 713.616V727.04H-417.886V713.724H-431.308V700.121H-444.909V659.527H-458.547V686.267H-472.184V673.166H-485.821V686.59H-512.809V713.724H-526.231V727.04H-512.916V713.616H-499.1V700.264H-485.57V713.616H-458.439V727.04H-444.945V713.616H-444.874ZM656.367 699.906V713.402H669.754V700.014H683.176V673.13H669.861V700.121C665.351 700.085 660.806 700.049 656.296 700.014V686.769H642.802V699.906C647.455 699.906 651.929 699.906 656.367 699.906V699.906ZM778.529 740.93V727.506H765.214V740.822H778.6V767.813H791.915V740.894H778.529V740.93ZM520.247 727.327V713.903H506.932V727.219H520.354V754.21H533.669V727.291H520.283L520.247 727.327ZM-173.026 740.822H-146.038V727.506H-172.955C-172.955 732.123 -172.955 736.527 -172.955 740.894H-186.377V754.21H-173.062V740.786L-173.026 740.822ZM3.68334 713.76V700.336H-9.63158V713.652H3.79077V727.076H30.6712V713.76C21.5082 713.76 12.5958 713.76 3.68334 713.76ZM-635.22 700.049H-621.44V686.411H-608.197V673.166H-635.113V700.157C-639.623 700.121 -644.169 700.085 -648.679 700.049V673.13H-662.387V686.661H-675.774V699.942C-666.611 699.942 -657.591 699.942 -648.607 699.942V713.437H-635.22V700.049V700.049ZM493.008 686.446H506.395V659.599H479.658V672.987H493.116V686.518H452.491V699.835H493.008V686.411V686.446ZM-159.461 686.554V673.13H-186.341V686.446H-159.353V713.402H-145.716V699.978H-132.509V673.058H-145.895V686.518H-159.461V686.554ZM683.319 740.93V727.506H656.439V740.822H683.427V754.21H723.98V740.822H710.415V727.47H696.885V740.93H683.319ZM-771.055 659.384V645.96H-784.37V659.276H-770.947V673.023H-784.549V686.554H-798.329V673.058H-811.823V686.59H-825.245V700.085H-798.15V713.616H-784.62V727.04H-757.74V713.724H-784.727C-784.727 704.631 -784.727 695.539 -784.727 686.446H-757.382V699.799H-744.067V672.844H-757.596V659.348C-762.357 659.348 -766.724 659.348 -771.126 659.348L-771.055 659.384ZM-308.896 713.652H-268.271V700.014H-281.729C-281.729 695.253 -281.729 690.885 -281.729 686.482H-268.307V673.166H-281.622V686.59H-308.789V713.76H-322.211V727.076H-308.896V713.652ZM153.155 700.372H112.709V727.112H139.84V713.652H153.155V700.372V700.372ZM85.2554 686.518V673.13H58.4108V686.697H71.9047V713.473H85.506V699.978H98.7493V686.482H85.2912L85.2554 686.518ZM-91.5258 673.202H-118.371V700.192H-104.805V713.545H-91.5258V673.202V673.202ZM411.758 727.112H465.698V713.903H411.758V727.112ZM-703.299 699.978V686.446H-716.685V673.202H-730.036V699.978H-703.263H-703.299ZM180.286 713.581V673.237H167.114V713.581H180.286ZM-689.518 713.974H-703.227V727.47H-716.399V740.643H-689.518V713.974ZM-363.445 672.808V646.032H-376.617V672.808H-363.445ZM-308.61 645.924V672.7H-295.438V645.924H-308.61ZM98.7493 659.205V645.996H72.0121V659.205H98.7493ZM-594.166 727.148H-580.923V700.372H-594.166V727.148ZM-50.4356 713.473H-23.6625V700.3H-50.4356V713.473ZM-553.29 713.867V740.643H-540.119V713.867H-553.29ZM-798.4 754.353V727.541H-811.572V754.353H-798.4ZM1118.6 754.353H1131.8V727.613H1118.6V754.353ZM44.4515 741.109H31.1723V767.921H44.4515V741.109ZM126.023 632.429H112.744V645.566H126.023V632.429ZM-621.619 645.996H-634.791V659.169H-621.619V645.996ZM588.504 686.375H601.747V673.202H588.504V686.375ZM873.988 686.375H887.196V673.237H873.988V686.375ZM44.5589 686.769H31.2797V699.906H44.5589V686.769ZM-64.2516 700.407H-77.5308V713.545H-64.2516V700.407ZM207.596 700.407H194.424V713.581H207.596V700.407ZM588.218 700.336H574.974V713.509H588.218V700.336ZM724.016 713.616V700.336H710.88V713.616H724.016ZM792.416 713.545H805.624V700.407H792.416V713.545ZM642.551 713.939H629.344V727.076H642.551V713.939ZM914.327 727.219V713.939H901.227V727.219H914.327ZM-743.566 727.398V740.679H-730.465V727.398H-743.566ZM-662.28 727.541H-675.559V740.679H-662.28V727.541ZM-118.406 740.643H-105.127V727.577H-118.406V740.643ZM-77.7813 727.541H-91.0605V740.643H-77.7813V727.541ZM-63.8579 727.47V740.751H-50.7577V727.47H-63.8579ZM71.6184 727.577H58.4465V740.786H71.6184V727.577ZM180.715 740.715H193.887V727.506H180.715V740.715ZM248.328 740.786V727.577H235.192V740.786H248.328ZM370.99 740.679H384.27V727.577H370.99V740.679ZM560.979 740.786V727.541H547.807V740.786H560.979ZM-594.452 754.389V741.18H-607.588V754.389H-594.452ZM-526.052 741.073V754.353H-512.916V741.073H-526.052ZM-254.527 741.144H-267.806V754.246H-254.527V741.144ZM17.1415 754.389V741.109H4.00551V754.389H17.1415ZM98.8209 741.18H85.5417V754.318H98.8209V741.18ZM289.418 754.353H302.662V741.18H289.418V754.353ZM452.24 741.109H438.961V754.318H452.24V741.109ZM506.574 741.109H493.366V754.246H506.574V741.109ZM642.48 754.353V741.109H629.308V754.353H642.48ZM-648.571 767.849H-635.399V754.676H-648.571V767.849ZM-50.7577 754.676H-64.0369V767.885H-50.7577V754.676ZM466.092 767.921H479.3V754.783H466.092V767.921ZM914.434 754.747H901.155V767.849H914.434V754.747Z" fill="#FF2E00" fill-opacity="0.85"/>
<path d="M370.99 618.718V605.151H357.46V591.405H370.74V578.017H384.377V591.261H397.763V604.9H384.556V618.646C379.867 618.646 375.393 618.646 370.919 618.646L371.026 618.754L370.99 618.718Z" fill="#FF2E00" fill-opacity="0.85"/>
<path d="M357.246 659.384V618.683C361.863 618.683 366.409 618.683 370.99 618.683L370.883 618.575C370.883 622.942 370.883 627.31 370.883 632.035H384.341V645.745L384.448 645.638H370.775V659.312L370.883 659.205H357.21L357.317 659.312L357.246 659.384Z" fill="#FF2E00" fill-opacity="0.85"/>
<path d="M207.631 605.008H221.196V632.035H234.619V645.709H207.631L207.738 645.817V604.937L207.631 605.044V605.008Z" fill="#FF2E00" fill-opacity="0.85"/>
<path d="M207.738 591.405V564.414H221.232V577.695H234.619V591.298H207.631L207.738 591.405V591.405Z" fill="#FF2E00" fill-opacity="0.85"/>
<path d="M30.7783 604.794V618.253H-9.52441V604.865C3.8979 604.865 17.3918 604.865 30.8857 604.865L30.7783 604.758V604.794Z" fill="#FF2E00" fill-opacity="0.85"/>
<path d="M44.3799 645.709H31.0292V659.169H17.6426V632.393H44.3799V645.745V645.709Z" fill="#FF2E00" fill-opacity="0.85"/>
<path d="M139.768 591.298H126.382V564.235H139.768L139.661 564.128C139.661 573.22 139.661 582.313 139.661 591.405L139.768 591.298V591.298Z" fill="#FF2E00" fill-opacity="0.85"/>
<path d="M330.187 591.155V564.414H343.394V591.155H330.187Z" fill="#FF2E00" fill-opacity="0.85"/>
<path d="M194.245 591.154H167.078V578.017H194.138C194.138 582.348 194.138 586.787 194.138 591.261L194.245 591.154Z" fill="#FF2E00" fill-opacity="0.85"/>
<path d="M275.817 604.757C271.236 604.793 266.619 604.829 262.037 604.901L262.145 605.008V578.053H275.746C275.746 586.966 275.746 595.915 275.746 604.901L275.853 604.793L275.817 604.757Z" fill="#FF2E00" fill-opacity="0.85"/>
<path d="M262.037 604.9V618.324H235.12V605.008C244.14 605.008 253.16 605.008 262.144 605.008L262.037 604.9V604.9Z" fill="#FF2E00" fill-opacity="0.85"/>
<path d="M17.2129 564.021H-9.52441V550.812H17.2129V564.021Z" fill="#FF2E00" fill-opacity="0.85"/>
<path d="M71.6185 550.739V563.913H44.8096V550.739H71.6185Z" fill="#FF2E00" fill-opacity="0.85"/>
<path d="M44.7379 604.758C40.0848 604.758 35.4317 604.758 30.8145 604.758L30.9218 604.865C30.9218 600.462 30.9218 596.095 30.9218 591.513H44.6663C44.6663 595.916 44.6663 600.355 44.6663 604.829L44.7737 604.722L44.7379 604.758Z" fill="#FF2E00" fill-opacity="0.85"/>
<path d="M85.3983 604.9H72.0117V591.584H85.3266C85.3266 596.059 85.3266 600.533 85.3266 605.008L85.434 604.9H85.3983Z" fill="#FF2E00" fill-opacity="0.85"/>
<path d="M139.66 591.405H153.261V605.008L153.369 604.901H139.696L139.803 605.008C139.803 600.426 139.803 595.88 139.803 591.298L139.696 591.405H139.66Z" fill="#FF2E00" fill-opacity="0.85"/>
<path d="M207.667 591.298C207.667 595.88 207.667 600.426 207.667 605.008L207.775 604.901H194.102L194.209 605.008C194.209 600.39 194.281 595.772 194.316 591.19L194.209 591.298C198.755 591.334 203.265 591.369 207.81 591.405L207.703 591.298H207.667Z" fill="#FF2E00" fill-opacity="0.85"/>
<path d="M302.805 591.334V604.901H289.239L289.347 605.008V591.441H302.912L302.805 591.334Z" fill="#FF2E00" fill-opacity="0.85"/>
<path d="M58.2311 618.504H44.7373C44.7373 613.85 44.7373 609.304 44.7373 604.758L44.6299 604.865C48.9966 604.865 53.3633 604.865 58.1237 604.865V618.611L58.2311 618.504Z" fill="#FF2E00" fill-opacity="0.85"/>
<path d="M289.203 604.901V618.289H275.816C275.816 613.886 275.816 609.34 275.816 604.758L275.709 604.865C280.255 604.901 284.765 604.937 289.31 604.973L289.203 604.865V604.901Z" fill="#FF2E00" fill-opacity="0.85"/>
<path d="M3.61151 645.566H-9.52441V632.356H3.61151V645.566Z" fill="#FF2E00" fill-opacity="0.85"/>
<path d="M235.013 536.815V523.642H248.256V536.815H235.013Z" fill="#FF2E00" fill-opacity="0.85"/>
<path d="M139.768 564.235V550.812H153.083V564.128H139.66L139.768 564.235Z" fill="#FF2E00" fill-opacity="0.85"/>
<path d="M370.561 564.02H357.389V550.847H370.561V564.02Z" fill="#FF2E00" fill-opacity="0.85"/>
<path d="M3.96973 591.154V578.017H17.1773V591.154H3.96973Z" fill="#FF2E00" fill-opacity="0.85"/>
<path d="M302.876 591.405V577.981H316.191V591.298H302.769L302.876 591.405Z" fill="#FF2E00" fill-opacity="0.85"/>
<path d="M194.065 604.9H207.738V645.781H194.173V659.133H180.679V645.673H166.898L167.006 645.781V632.249H194.101V604.9H194.065Z" fill="black"/>
<path d="M139.66 604.9H153.333V631.891H139.66V604.9Z" fill="black"/>
<path d="M125.988 632.393V645.53H112.709V632.393H125.988Z" fill="black"/>
<path d="M302.769 632.178H316.191V645.494H302.876V632.07L302.769 632.178Z" fill="black"/>
<path d="M588.218 -70.5899H561.301V-57.0944H574.473V-43.4558H547.664V-29.8171H533.848L533.956 -29.7097V-43.1336H506.896V-2.71867H520.068V10.8484H493.295V-2.61128H479.479L479.586 -2.5039L479.479 -29.7813C483.953 -29.7813 488.427 -29.7813 492.901 -29.7813V-43.0978H479.586V-29.6739C475.041 -29.7097 470.459 -29.7455 465.913 -29.7813L466.021 -29.6739V-43.062H452.348V-29.6739L452.455 -29.7813C443.364 -29.7455 434.272 -29.7097 425.181 -29.6739C425.181 -38.6947 425.181 -47.6798 425.181 -57.0586H438.639V-70.2678H411.472V-43.1694H398.265V-29.7455H425.288V-2.57548H398.014L398.122 -2.46809V-16.0352H384.592V-43.1336H357.389V-56.7007H316.585V-43.4558H302.841V-2.5039L302.948 -2.61128H289.418V-15.9636H262.323V-2.71867H275.674V11.0632L275.781 10.9558H262.252V24.4155H248.686V-2.28912H235.121V10.9916H221.34L221.448 11.099V-15.892H207.775V11.099L207.882 10.9916H194.317V-2.3607H180.823V10.9916H167.007L167.114 11.099V-16.25H194.209V-29.7813C203.229 -29.7813 212.213 -29.7813 221.412 -29.7813V-43.3841C225.886 -43.3841 230.36 -43.3841 234.834 -43.3841V-56.8797H221.448C221.448 -61.3543 221.448 -65.8289 221.448 -70.3036H208.133V-56.987H221.555V-43.2768H194.352V-29.6739H180.572V-43.1336H167.078V-29.7813H153.513L153.62 -29.6739V-43.1336C139.804 -43.1336 126.203 -43.1336 112.637 -43.1336C112.673 -47.7514 112.709 -52.3692 112.745 -56.987H139.732V-97.4377H85.7925C85.7925 -92.7483 85.7925 -88.3453 85.7925 -83.9422C81.1752 -83.978 76.5579 -84.0138 71.9406 -84.0496V-97.6525H44.738V-124.608H4.18465V-97.9031H17.7501V-111.112H31.2799V-97.7599C36.0403 -97.7599 40.4428 -97.7599 44.8454 -97.7599C44.8454 -93.2853 44.8454 -88.8106 44.8454 -84.157H72.048C72.048 -79.6824 72.048 -75.2435 72.048 -70.7331H85.6851V-84.0496H126.203V-70.4468H112.852V-56.8797H85.8283V-43.241H112.745V-16.3216H99.3222V-29.4591H85.7209V-16.071H58.3751V-29.4949H45.0602V-16.1784H58.4825V-2.61128H44.9528V10.7768H17.8933V-2.5039H31.0651V-15.9994H17.5712V-43.3841C31.1009 -43.3841 44.6664 -43.3841 58.1603 -43.3841V-70.3393H44.738V-57.2018H31.1009V-70.3036H17.6785V-43.2768C13.1328 -43.3126 8.55138 -43.3484 4.00568 -43.3841L4.11305 -43.2768V-56.8797H-9.55987V-70.3036H-22.8748V-56.987H-9.45249C-9.45249 -52.4408 -9.52408 -47.8588 -9.55987 -43.3126L-9.45249 -43.42H-23.1254V-29.7455L-23.018 -29.8529H-36.6909L-36.5835 -29.7455V-70.6973H-50.2922V-83.978H-63.9293V-70.4109H-77.2085V-56.9154H-63.8577V-43.3484L-63.7504 -43.4558H-104.626V-29.7455L-104.518 -29.8529H-117.905V-16.1784H-104.518L-104.626 -16.2858V10.9916L-104.518 10.8842H-118.084V-2.46809H-145.215V10.741H-158.852V-2.5397H-172.31V-16.071H-145.573V-29.7097H-158.745V-57.0944H-172.561L-172.453 -56.987V-70.3751H-186.126V-56.987L-186.019 -57.0944H-199.692V-43.42L-199.584 -43.5273H-240.281V-29.9245H-253.882V-16.429H-294.65V24.4871H-308.431L-308.323 24.5945V10.92H-321.996L-321.889 11.0274V-2.79028H-308.216V-29.8887H-267.842V-43.2052H-322.032V-16.25H-335.598L-335.49 -16.1426V-29.8887H-349.306V-43.42H-376.366L-376.258 -43.3126V-57.1302H-362.908V-70.3393H-389.967V-43.3126L-389.86 -43.42H-403.389V-2.79028H-430.485V-16.0352H-417.277V-29.6739H-430.485V-43.4558H-444.265L-444.158 -43.3484C-444.193 -47.8946 -444.229 -52.4766 -444.265 -57.0229H-403.676V-84.0138H-417.062V-70.4825H-444.193V-56.9154H-471.324V-2.79028H-484.818V-29.7455H-498.634C-498.634 -34.2201 -498.634 -38.6947 -498.634 -43.1694H-511.949V-29.8529H-498.563V-16.3216H-512.271V-2.57548L-512.164 -2.68289C-516.71 -2.68289 -521.291 -2.68289 -525.837 -2.68289L-525.73 -2.57548V-29.5665H-539.403V-2.57548L-539.295 -2.68289H-552.968L-552.861 -2.57548V-15.9636H-566.534V-2.57548L-566.426 -2.68289H-593.7V24.5945L-593.593 24.4871H-607.123V-2.68289H-620.867L-620.76 -2.57548V-29.7455H-634.433L-634.29 -43.3126C-625.27 -43.3126 -616.25 -43.3126 -607.266 -43.3126V-16.5006H-579.884V-29.8887H-566.498C-566.498 -34.6497 -566.498 -39.0527 -566.498 -43.42C-562.024 -43.42 -557.55 -43.42 -553.075 -43.42V-84.1212H-566.462V-111.148H-579.777V-84.2286H-566.355C-566.355 -70.5899 -566.355 -56.9871 -566.355 -43.3484H-580.099V-56.7365H-593.665V-43.2052C-598.353 -43.2052 -602.828 -43.2052 -607.302 -43.2052C-607.266 -52.3334 -607.23 -61.4617 -607.194 -70.6257C-602.72 -70.6257 -598.246 -70.6257 -593.772 -70.6257V-97.5093H-607.087V-70.5183H-647.676V-56.8081H-634.146C-634.146 -52.047 -634.146 -47.644 -634.146 -43.241C-638.692 -43.241 -643.238 -43.241 -647.891 -43.241V-29.7455H-661.671V-43.4558H-702.368L-702.26 -43.3484V-57.1302H-716.005V-70.6257H-729.248V-97.9389H-716.076C-716.076 -102.7 -716.076 -107.103 -716.076 -111.506C-707.057 -111.506 -698.037 -111.506 -688.659 -111.506V-98.0105H-661.707V-111.399H-675.165V-124.966C-670.691 -124.966 -666.217 -124.966 -661.743 -124.966V-138.282H-675.058V-124.858H-715.969V-111.399H-743.207V-84.0496H-756.737V-43.3126L-756.63 -43.42H-783.618V-70.5183H-770.41V-84.0138H-783.797V-97.5451H-797.291V-56.8797H-811.071V-70.5183H-838.989V-124.894C-834.444 -124.894 -829.898 -124.93 -825.352 -124.966V-97.9389H-812.037V-124.858H-825.46V-138.497H-838.989V-356C-159.317 -356 520.354 -356 1199.99 -356V-56.9512H1186.64V-43.3484H1199.99V-29.7455H1172.93V-43.1336H1159.15V-16.1068L1159.26 -16.2142H1118.53V-29.6381H1105V-43.42H1064.01L1064.12 -43.3126V-56.7007H1050.45V-43.3126L1050.55 -43.42H1036.88V-29.7455L1036.99 -29.8529L1023.32 -29.7455C1023.32 -34.2201 1023.32 -38.6947 1023.32 -43.1694H1010V-29.8529H1023.42C1023.42 -16.2858 1023.42 -2.68289 1023.42 10.8842L1023.53 10.7768C1018.95 10.8126 1014.33 10.8484 1009.75 10.92L1009.86 11.0274V-15.9636H982.656V-2.68289H969.162V24.5229H955.382L955.489 24.6303V11.0632H942.031V-2.43231H955.382V-16.2142H968.768V-43.1694C955.024 -43.1694 941.566 -43.1694 928.107 -43.1694C928.107 -47.7156 928.107 -52.2618 928.107 -56.9154H914.613V-70.6973H928.072V-83.9422H887.697V-43.42H901.119V-29.996H914.613V-43.3841L928.179 -43.241V-29.5665H955.489V-16.071C928.286 -16.071 901.048 -16.071 873.845 -16.071V-29.4949H860.53V-16.1784H873.953V10.7768H860.423V-2.61128H846.678L846.786 -2.5039V-43.0978H833.006V-29.6739H792.345C792.345 -38.6947 792.345 -47.6798 792.345 -56.8797H778.743V-70.3036H765.25V-56.8797H751.827V-29.6023H765.142V-16.071L765.25 -16.1784H738.118V10.8842H724.625V-16.0352H710.988V-29.5665H697.207V-56.9512C701.681 -56.9512 706.155 -56.9512 710.988 -56.9512V-70.6257H724.231V-83.8707H697.279V-56.8439H683.856V-16.25H696.957V24.5945H670.005L670.112 24.7019V11.2064H683.427V-2.57548H656.403L656.511 -2.46809V-16.25H642.695V-43.2768C633.46 -43.2768 624.548 -43.2768 615.635 -43.2768V-56.7007H602.32V-43.3841H615.742C615.742 -38.8379 615.671 -34.2559 615.635 -29.7097L615.742 -29.8171H588.468L588.576 -29.7097C588.576 -42.1313 588.576 -54.5528 588.504 -66.9744C588.504 -68.2273 588.397 -69.4444 588.325 -70.6973C592.799 -70.6973 597.309 -70.6973 602.141 -70.6973V-84.2644H615.528V-97.5451C606.365 -97.5451 597.345 -97.5451 588.361 -97.5451C588.361 -102.163 588.433 -106.745 588.468 -111.363C592.942 -111.363 597.417 -111.363 601.891 -111.363V-124.679H588.576V-111.255H575.153V-97.6525H588.468C588.468 -88.6317 588.468 -79.6108 588.468 -70.6257L588.218 -70.5899ZM99.0001 -138.425H85.5777V-125.145H98.8927C98.8927 -129.763 98.8927 -134.166 98.8927 -138.533H112.315V-151.849H99.0001V-138.425V-138.425ZM234.942 -138.425H221.519V-125.145H234.834V-138.533H248.257V-151.849H234.942V-138.425V-138.425ZM1132.02 -138.425V-151.849H1118.7V-138.533H1132.13V-125.109H1145.41V-138.425H1132.02ZM-485.498 -111.22H-499.207V-97.7599H-512.522V-84.0138H-499.171V-57.0586H-485.498V-70.5899H-472.004V-84.1212H-458.582V-97.4377H-471.897V-84.0138C-481.024 -83.978 -490.151 -83.9422 -499.279 -83.9064C-499.279 -88.5601 -499.279 -93.1779 -499.279 -97.8315H-485.57C-485.57 -102.557 -485.57 -106.924 -485.57 -111.327H-472.148V-124.644H-485.463V-111.22H-485.498ZM547.593 -97.6167H534.17V-84.336H547.485C547.485 -88.9538 547.485 -93.3569 547.485 -97.7241H560.908V-111.041H547.593V-97.6167ZM751.505 -97.6167H738.083V-84.336H751.398V-97.7241H764.82V-111.041H751.505V-97.6167ZM805.874 -97.6167C801.329 -97.6167 796.747 -97.6167 792.202 -97.6167V-111.041H778.887V-97.7241H792.309V-84.1212H805.91V-43.5273H819.547V-70.2678H833.184V-57.166H846.822V-70.5899H873.809V-97.7241H887.232V-111.041H873.917V-97.6167H860.101V-84.2644H846.571V-97.6167H819.44V-111.041H805.946V-97.6167H805.874ZM-295.366 -83.9064V-97.4019H-308.753V-84.0138H-322.175V-57.1302H-308.86V-84.1212C-304.35 -84.0854 -299.805 -84.0496 -295.295 -84.0138V-70.7689H-281.801V-83.9064C-286.454 -83.9064 -290.928 -83.9064 -295.366 -83.9064ZM-417.528 -124.93V-111.506H-404.213V-124.822H-417.599V-151.813H-430.914V-124.894C-426.297 -124.894 -421.894 -124.894 -417.528 -124.894V-124.93ZM-159.246 -111.327V-97.9031H-145.931V-111.22H-159.353V-138.211H-172.668V-111.291H-159.282L-159.246 -111.327ZM534.027 -124.822H507.039V-111.506H533.956C533.956 -116.124 533.956 -120.527 533.956 -124.894H547.378V-138.211H534.063V-124.787L534.027 -124.822ZM357.318 -97.7599V-84.336H370.633V-97.6525H357.21V-111.076H330.33V-97.7599C339.493 -97.7599 348.405 -97.7599 357.318 -97.7599V-97.7599ZM996.221 -84.0496H982.441V-70.4109H969.198V-57.166H996.114V-84.157C1000.62 -84.1212 1005.17 -84.0854 1009.68 -84.0496V-57.1302H1023.39V-70.6615H1036.77V-83.9422C1027.61 -83.9422 1018.59 -83.9422 1009.61 -83.9422V-97.4377H996.221V-84.0496ZM-132.007 -70.4468H-145.394V-43.5989H-118.657V-56.987H-132.115V-70.5183H-91.4899V-83.8349H-132.007V-70.4109V-70.4468ZM520.462 -70.5541V-57.1302H547.342V-70.4468H520.354V-97.4019H506.717V-83.978H493.51V-57.0586H506.896V-70.5183H520.462V-70.5541ZM-322.318 -124.93V-111.506H-295.438V-124.822H-322.426V-138.211H-362.979V-124.822H-349.414V-111.47H-335.884V-124.93C-331.123 -124.93 -326.721 -124.93 -322.318 -124.93V-124.93ZM1132.16 -43.3484V-29.9245H1145.48V-43.241H1132.06V-56.987H1145.66V-70.5183H1159.44V-57.0229H1172.93V-70.5541H1186.32V-84.0496H1159.22V-97.5809C1154.46 -97.5809 1150.06 -97.5809 1145.69 -97.5809V-111.005H1118.81V-97.6883H1145.8C1145.8 -88.5958 1145.8 -79.5034 1145.8 -70.4109H1118.45V-83.7632H1105.14V-56.8081H1118.67V-43.3126C1123.43 -43.3126 1127.8 -43.3126 1132.2 -43.3126L1132.16 -43.3484ZM670.005 -97.6167H629.38V-83.978H642.838C642.838 -79.217 642.838 -74.8498 642.838 -70.4468H629.415V-57.1302H642.73V-70.5541H669.897V-97.7241H683.32V-111.041H670.005V-97.6167V-97.6167ZM207.954 -84.336H248.4V-111.076H221.269V-97.6167H207.954V-84.336ZM275.853 -70.4825V-57.0944H302.698V-70.6615H289.204V-97.4377H275.602V-83.9422H262.359V-70.4468H275.817L275.853 -70.4825ZM452.634 -57.166H479.479V-84.157H465.913V-97.5093H452.634V-57.166V-57.166ZM-50.6501 -111.076H-104.59V-97.8673H-50.6501V-111.076ZM1064.41 -83.9422V-70.4109H1077.79V-57.166H1091.14V-83.9422H1064.37H1064.41ZM180.823 -97.5451V-57.2018H193.995V-97.5451H180.823ZM1050.63 -97.9389H1064.34V-111.434H1077.51V-124.608H1050.63V-97.9389ZM724.553 -56.7723V-29.996H737.725V-56.7723H724.553ZM669.718 -29.8887V-56.6649H656.546V-29.8887H669.718ZM262.359 -43.1694V-29.9602H289.096V-43.1694H262.359ZM955.274 -111.112H942.031V-84.336H955.274V-111.112ZM411.544 -97.4377H384.771V-84.2644H411.544V-97.4377ZM914.399 -97.8315V-124.608H901.227V-97.8315H914.399ZM1159.51 -138.318V-111.506H1172.68V-138.318H1159.51V-138.318ZM-757.489 -138.318H-770.696V-111.578H-757.489V-138.318ZM316.657 -125.073H329.936V-151.885H316.657V-125.073ZM235.085 -16.3932H248.364V-29.5307H235.085V-16.3932ZM982.727 -29.9602H995.899V-43.1336H982.727V-29.9602ZM-227.396 -70.3393H-240.639V-57.166H-227.396V-70.3393ZM-512.88 -70.3393H-526.088V-57.2018H-512.88V-70.3393ZM316.549 -70.7331H329.829V-83.8707H316.549V-70.7331ZM425.36 -84.3718H438.639V-97.5093H425.36V-84.3718ZM153.513 -84.3718H166.685V-97.5451H153.513V-84.3718ZM-227.109 -84.3002H-213.866V-97.4735H-227.109V-84.3002ZM-362.908 -97.5809V-84.3002H-349.772V-97.5809H-362.908ZM-431.308 -97.5093H-444.515V-84.3718H-431.308V-97.5093ZM-281.443 -97.9031H-268.235V-111.041H-281.443V-97.9031ZM-553.219 -111.184V-97.9031H-540.118V-111.184H-553.219ZM1104.67 -111.363V-124.644H1091.57V-111.363H1104.67ZM1023.39 -111.506H1036.67V-124.644H1023.39V-111.506ZM479.515 -124.608H466.235V-111.542H479.515V-124.608ZM438.89 -111.506H452.169V-124.608H438.89V-111.506ZM424.966 -111.434V-124.715H411.866V-111.434H424.966ZM289.49 -111.542H302.662V-124.751H289.49V-111.542ZM180.393 -124.679H167.221V-111.47H180.393V-124.679ZM112.78 -124.751V-111.542H125.916V-124.751H112.78ZM-9.88199 -124.644H-23.1612V-111.542H-9.88199V-124.644ZM-199.871 -124.751V-111.506H-186.699V-124.751H-199.871ZM955.561 -138.354V-125.145H968.697V-138.354H955.561ZM887.16 -125.037V-138.318H874.024V-125.037H887.16ZM615.635 -125.109H628.914V-138.211H615.635V-125.109ZM343.967 -138.354V-125.073H357.103V-138.354H343.967V-138.354ZM262.287 -125.145H275.567V-138.282H262.287V-125.145ZM71.6901 -138.318H58.4467V-125.145H71.6901V-138.318ZM-91.1319 -125.073H-77.8528V-138.282H-91.1319V-125.073ZM-145.466 -125.073H-132.258V-138.211H-145.466V-125.073ZM-281.371 -138.318V-125.073H-268.2V-138.318H-281.371ZM1009.68 -151.813H996.508V-138.64H1009.68V-151.813ZM411.866 -138.64H425.145V-151.849H411.866V-138.64ZM-104.984 -151.885H-118.191V-138.748H-104.984V-151.885ZM-553.326 -138.712H-540.047V-151.813H-553.326V-138.712V-138.712Z" fill="#FF2E00" fill-opacity="0.85"/>
<path d="M-9.98961 -2.71908V10.848H3.5401V24.5941H-9.73909V37.9822H-23.3762V24.7373H-36.7627V11.0986H-23.5551V-2.6475C-18.8662 -2.6475 -14.3921 -2.6475 -9.91801 -2.6475L-10.0254 -2.75488L-9.98961 -2.71908Z" fill="#FF2E00" fill-opacity="0.85"/>
<path d="M153.37 10.9913H139.804V-16.0355H126.382V-29.71H153.37L153.262 -29.8174V11.0629L153.37 10.9555V10.9913Z" fill="#FF2E00" fill-opacity="0.85"/>
<path d="M153.262 24.5947V51.5857H139.768V38.305H126.382V24.7021H153.37L153.262 24.5947V24.5947Z" fill="#FF2E00" fill-opacity="0.85"/>
<path d="M330.223 11.2068V-2.25293H370.526V11.1352C357.103 11.1352 343.609 11.1352 330.115 11.1352L330.223 11.2426V11.2068Z" fill="#FF2E00" fill-opacity="0.85"/>
<path d="M221.232 24.7021H234.619V51.7647H221.232L221.34 51.8721C221.34 42.7797 221.34 33.6872 221.34 24.5947L221.232 24.7021Z" fill="#FF2E00" fill-opacity="0.85"/>
<path d="M30.8151 24.8096V51.55H17.6074V24.8096H30.8151Z" fill="#FF2E00" fill-opacity="0.85"/>
<path d="M166.756 24.8095H193.923V37.9471H166.863C166.863 33.6157 166.863 29.1768 166.863 24.7021L166.756 24.8095Z" fill="#FF2E00" fill-opacity="0.85"/>
<path d="M85.1843 11.2418C89.7657 11.206 94.3829 11.1702 98.9644 11.0986L98.857 10.9912V37.9464H85.2558C85.2558 29.0329 85.2558 20.0837 85.2558 11.0986L85.1484 11.206L85.1843 11.2418Z" fill="#FF2E00" fill-opacity="0.85"/>
<path d="M99 11.0987V-2.3252H125.916V10.9913H98.8926L99 11.0987V11.0987Z" fill="#FF2E00" fill-opacity="0.85"/>
<path d="M343.824 51.9795H370.561V65.1886H343.824V51.9795Z" fill="#FF2E00" fill-opacity="0.85"/>
<path d="M289.418 65.2241V52.0508H316.227V65.2241H289.418Z" fill="#FF2E00" fill-opacity="0.85"/>
<path d="M316.263 11.2422C320.916 11.2422 325.57 11.2422 330.187 11.2422L330.08 11.1348C330.08 15.5378 330.08 19.9051 330.08 24.4871H316.335C316.335 20.084 316.335 15.6452 316.335 11.1706L316.228 11.278L316.263 11.2422Z" fill="#FF2E00" fill-opacity="0.85"/>
<path d="M275.602 11.0634H288.989V24.3799H275.674C275.674 19.9053 275.674 15.4307 275.674 10.9561L275.566 11.0634H275.602Z" fill="#FF2E00" fill-opacity="0.85"/>
<path d="M221.34 24.5941H207.739V10.9912L207.632 11.0986H221.305L221.197 10.9912C221.197 15.5732 221.197 20.1195 221.197 24.7015L221.305 24.5941H221.34Z" fill="#FF2E00" fill-opacity="0.85"/>
<path d="M153.37 24.7015C153.37 20.1195 153.37 15.5732 153.37 10.9912L153.262 11.0986H166.935L166.828 10.9912C166.828 15.609 166.756 20.2268 166.721 24.8089L166.828 24.7015C162.282 24.6657 157.772 24.6299 153.227 24.5941L153.334 24.7015H153.37Z" fill="#FF2E00" fill-opacity="0.85"/>
<path d="M58.2324 24.6657V11.0986H71.7979L71.6904 10.9912V24.5583H58.125L58.2324 24.6657Z" fill="#FF2E00" fill-opacity="0.85"/>
<path d="M302.77 -2.50394H316.263C316.263 2.14968 316.263 6.6959 316.263 11.2421L316.371 11.1347C312.004 11.1347 307.637 11.1347 302.877 11.1347V-2.61133L302.77 -2.50394Z" fill="#FF2E00" fill-opacity="0.85"/>
<path d="M71.7979 11.0991V-2.28906H85.1843C85.1843 2.11397 85.1843 6.6602 85.1843 11.2422L85.2917 11.1348C80.746 11.099 76.2361 11.0632 71.6904 11.0274L71.7979 11.1348V11.0991Z" fill="#FF2E00" fill-opacity="0.85"/>
<path d="M125.987 79.1855V92.3589H112.744V79.1855H125.987Z" fill="#FF2E00" fill-opacity="0.85"/>
<path d="M221.233 51.7646V65.1885H207.918V51.872H221.34L221.233 51.7646Z" fill="#FF2E00" fill-opacity="0.85"/>
<path d="M-9.55957 51.9795H3.61224V65.1529H-9.55957V51.9795Z" fill="#FF2E00" fill-opacity="0.85"/>
<path d="M357.067 24.8447V37.9823H343.859V24.8447H357.067Z" fill="#FF2E00" fill-opacity="0.85"/>
<path d="M58.1246 24.5586V37.9825H44.8096V24.666H58.2319L58.1246 24.5586Z" fill="#FF2E00" fill-opacity="0.85"/>
<path d="M166.971 11.0988H153.298V-29.7815H166.863V-43.1338H180.357V-29.6741H194.138L194.03 -29.7815V-16.2502H166.935V11.0988H166.971Z" fill="black"/>
<path d="M221.341 11.0994H207.668V-15.8916H221.341V11.0994Z" fill="black"/>
</g>
<g filter="url(#filter0_b_510_2144)">
<rect width="360" height="640" fill="black" fill-opacity="0.4"/>
</g>
</g>
<defs>
<filter id="filter0_b_510_2144" x="-10" y="-10" width="380" height="660" filterUnits="userSpaceOnUse" color-interpolation-filters="sRGB">
<feFlood flood-opacity="0" result="BackgroundImageFix"/>
<feGaussianBlur in="BackgroundImage" stdDeviation="5"/>
<feComposite in2="SourceAlpha" operator="in" result="effect1_backgroundBlur_510_2144"/>
<feBlend mode="normal" in="SourceGraphic" in2="effect1_backgroundBlur_510_2144" result="shape"/>
</filter>
<clipPath id="clip0_510_2144">
<rect width="360" height="640" fill="white"/>
</clipPath>
<clipPath id="clip1_510_2144">
<rect width="2039" height="1328" fill="white" transform="translate(-839 -356)"/>
</clipPath>
</defs>
</svg>
