<svg width="1448" height="1032" viewBox="0 0 1448 1032" fill="none" xmlns="http://www.w3.org/2000/svg">
<g clip-path="url(#clip0_510_3451)" filter="url(#filter0_d_510_3451)">
<rect width="1440" height="1024" transform="translate(4)" fill="white"/>
<g clip-path="url(#clip1_510_3451)">
<path d="M2221.38 -222.124H-737.128V1295.59H2221.38V-222.124Z" fill="black"/>
<path d="M146.421 1077.84H186.037V1057.97H166.651V1037.89H206.108V1017.81H226.442L226.284 1017.65V1037.42H266.111V977.921H246.724V957.948H286.129V977.762H306.463L306.305 977.604L306.463 1017.76C299.878 1017.76 293.293 1017.76 286.708 1017.76V1037.36H306.305V1017.6C312.996 1017.66 319.739 1017.71 326.429 1017.76L326.271 1017.6V1037.31H346.395V1017.6L346.237 1017.76C359.618 1017.71 372.998 1017.66 386.379 1017.6C386.379 1030.88 386.379 1044.11 386.379 1057.97H366.571V1077.41H406.555V1037.52H425.994V1017.76H386.221V977.762H426.363L426.205 977.604V997.577H446.118V1037.47H486.155V1057.44H546.21V1037.94H566.439V977.657L566.281 977.815H586.194V997.472H626.073V977.973H606.423V957.684L606.265 957.843H626.178V938.028H646.144V977.341H666.11V957.79H686.392L686.234 957.632V997.366H706.357V957.632L706.199 957.79H726.165V977.446H746.025V957.79H766.36L766.202 957.632V997.893H726.323V1017.81C713.048 1017.81 699.825 1017.81 686.286 1017.81V1037.84H666.531V1057.71C673.327 1057.71 679.807 1057.71 686.234 1057.71C686.234 1064.29 686.234 1070.88 686.234 1077.47H705.831V1057.86H686.076V1037.68H726.112V1017.65H746.394V1037.47H766.255V1017.81H786.22L786.062 1017.65V1037.47C806.397 1037.47 826.415 1037.47 846.381 1037.47C846.328 1044.27 846.276 1051.07 846.223 1057.86H806.502V1117.41H885.891C885.891 1110.51 885.891 1104.03 885.891 1097.55C892.687 1097.6 899.482 1097.65 906.278 1097.7V1117.73H946.315V1157.41H1006V1118.1H986.036V1137.54H966.123V1117.89C959.116 1117.89 952.637 1117.89 946.157 1117.89C946.157 1111.3 946.157 1104.71 946.157 1097.86H906.12C906.12 1091.27 906.12 1084.74 906.12 1078.1H886.049V1097.7H826.415V1077.68H846.065V1057.71C859.288 1057.71 872.51 1057.71 885.838 1057.71V1037.63H846.223V997.999H865.978V1017.34H885.996V997.63H926.244V1017.39H945.841V997.788H926.086V977.815H945.999V958.106H985.825V977.657H966.439V997.524H986.299V1037.84H926.56V1077.52H946.315V1058.18H966.386V1077.47H986.141V1037.68C992.831 1037.73 999.575 1037.79 1006.26 1037.84L1006.11 1037.68V1057.71C1013.32 1057.71 1019.75 1057.71 1026.23 1057.71V1077.47H1045.83V1057.86H1026.07C1026.07 1051.17 1026.18 1044.43 1026.23 1037.73L1026.07 1037.89H1046.2V1017.76L1046.04 1017.92H1066.16L1066 1017.76V1078.05H1086.18V1097.6H1106.25V1077.63H1125.8V1057.76H1106.15V1037.79L1105.99 1037.94H1166.15V1017.76L1165.99 1017.92H1185.69V997.788H1165.99L1166.15 997.946V957.79L1165.99 957.948H1185.96V977.604H1225.89V958.159H1245.96V977.71H1265.77V997.63H1226.41V1017.71H1245.8V1058.02H1266.14L1265.98 1057.86V1077.57H1286.1V1057.86L1285.94 1058.02H1306.07V1037.89L1305.91 1038.05H1365.81V1018.02H1385.82V998.157H1445.83V937.923H1466.11L1465.95 937.765V957.895H1486.07L1485.92 957.737V978.079H1465.79V1017.97H1406.37V1037.57H1486.13V997.893H1506.09L1505.93 997.735V1017.97H1526.27V1037.89H1566.1L1565.94 1037.73V1058.07H1546.29V1077.52H1586.11V1037.73L1585.96 1037.89H1605.87V978.079H1645.8V997.577H1626.36V1017.65H1645.8V1037.94H1666.08L1665.92 1037.79C1665.98 1044.48 1666.03 1051.22 1666.08 1057.92H1606.34V1097.65H1626.05V1077.73H1665.98V1057.76H1705.91V978.079H1725.77V1017.76C1732.88 1017.76 1739.47 1017.76 1746.1 1017.76C1746.1 1024.35 1746.1 1030.93 1746.1 1037.52H1765.7V1017.92H1746V997.999H1766.17V977.762L1766.02 977.921C1772.71 977.921 1779.45 977.921 1786.14 977.921L1785.98 977.762V1017.5H1806.11V977.762L1805.95 977.921H1826.07L1825.91 977.762V997.472H1846.04V977.762L1845.88 977.921H1886.02V937.765L1885.86 937.923H1905.78V977.921H1926.01L1925.85 977.762V1017.76H1945.97L1945.76 1037.73C1932.49 1037.73 1919.21 1037.73 1905.99 1037.73V998.262H1865.69V1017.97H1845.98C1845.98 1024.98 1845.98 1031.46 1845.98 1037.89C1839.4 1037.89 1832.81 1037.89 1826.23 1037.89V1097.81H1845.93V1137.6H1865.53V1097.97H1845.77C1845.77 1077.89 1845.77 1057.86 1845.77 1037.79H1866V1057.49H1885.97V1037.57C1892.87 1037.57 1899.45 1037.57 1906.04 1037.57C1905.99 1051.01 1905.93 1064.45 1905.88 1077.94C1899.3 1077.94 1892.71 1077.94 1886.13 1077.94V1117.52H1905.72V1077.78H1965.46V1057.6H1945.55C1945.55 1050.59 1945.55 1044.11 1945.55 1037.63C1952.24 1037.63 1958.93 1037.63 1965.78 1037.63V1017.76H1986.06V1037.94H2045.96L2045.8 1037.79V1058.07H2066.03V1077.94H2085.52V1118.15H2066.13C2066.13 1125.16 2066.13 1131.64 2066.13 1138.12C2052.86 1138.12 2039.58 1138.12 2025.78 1138.12V1118.26H1986.11V1137.97H2005.92V1157.94C1999.34 1157.94 1992.75 1157.94 1986.17 1157.94V1177.54H2005.76V1157.78H2065.98V1137.97H2106.07V1097.7H2125.98V1037.73L2125.82 1037.89H2165.54V1077.78H2146.1V1097.65H2165.8V1117.57H2185.67V1057.71H2205.95V1077.78H2245.88V1157.83C2239.19 1157.83 2232.5 1157.89 2225.81 1157.94V1118.15H2206.21V1157.78H2225.97V1177.86H2245.88V1498.05C1245.54 1498.05 245.197 1498.05 -755.092 1498.05V1057.81H-734.336V1037.79H-753.986V1017.76H-714.159V1037.47H-693.878V997.682L-694.036 997.84H-634.086V1017.6H-614.173V1037.89H-553.854L-554.012 1037.73V1057.44H-533.888V1037.73L-534.046 1037.89H-513.923V1017.76L-514.081 1017.92C-507.39 1017.87 -500.647 1017.81 -493.957 1017.76C-493.957 1024.35 -493.957 1030.93 -493.957 1037.52H-474.36V1017.92H-494.115C-494.115 997.946 -494.115 977.921 -494.115 957.948L-494.273 958.106C-487.53 958.053 -480.734 958.001 -473.991 957.895L-474.149 957.737V997.472H-434.112V977.921H-414.252V937.87H-393.97L-394.128 937.712V957.684H-374.321V977.552H-393.97V997.84C-400.555 997.84 -407.193 997.84 -413.673 997.84V1037.52C-393.443 1037.52 -373.636 1037.52 -353.828 1037.52C-353.828 1044.21 -353.828 1050.91 -353.828 1057.76H-333.968V1078.05H-353.775V1097.55H-294.352V1037.89H-314.107V1018.13H-333.968V1037.84C-340.605 1037.79 -347.296 1037.73 -353.933 1037.63V1017.5H-394.128V997.63H-273.965V1017.39H-254.368V997.788H-274.123V958.106H-254.21V977.815H-233.981L-234.139 977.657V1037.42H-213.857V1017.65H-154.013C-154.013 1030.93 -154.013 1044.16 -154.013 1057.71H-133.994V1077.47H-114.134V1057.71H-94.3789V1017.55H-113.976V997.63L-114.134 997.788H-74.2025V957.948H-54.3421V997.577H-34.271V1017.5H-13.9892V1057.81H-34.271V1077.89H-53.7626V1097.39H-14.0945V1057.6H5.66046V997.84H-13.6204V937.712H26.0477L25.8896 937.554V957.421H6.29268V977.71H46.066L45.908 977.552V997.84H66.2425V1037.63H106.069V1057.39H125.666V1037.79H105.911C105.911 1031.09 106.016 1024.35 106.069 1017.65L105.911 1017.81H146.053L145.895 1017.65C145.895 1035.94 145.895 1054.23 146 1072.51C146 1074.36 146.158 1076.15 146.263 1077.99C139.678 1077.99 133.041 1077.99 125.929 1077.99V1097.97H106.227V1117.52C119.713 1117.52 132.988 1117.52 146.211 1117.52C146.158 1124.32 146.105 1131.06 146.053 1137.86C139.468 1137.86 132.883 1137.86 126.298 1137.86V1157.46H145.895V1137.7H165.65V1117.68H146.053C146.053 1104.4 146.053 1091.12 146.053 1077.89L146.421 1077.84ZM866.452 1177.7H886.207V1158.15H866.61C866.61 1164.95 866.61 1171.43 866.61 1177.86H846.855V1197.46H866.452V1177.7V1177.7ZM666.373 1177.7H686.128V1158.15H666.531V1177.86H646.776V1197.46H666.373V1177.7V1177.7ZM-653.946 1177.7V1197.46H-634.349V1177.86H-654.104V1158.1H-673.648V1177.7C-666.853 1177.7 -660.373 1177.7 -653.946 1177.7ZM1726.72 1137.65H1746.89V1117.83H1766.49V1097.6H1746.84V1057.92H1726.72V1077.84H1706.86V1097.76H1687.1V1117.36H1706.7V1097.6C1720.13 1097.55 1733.57 1097.49 1747 1097.44C1747 1104.29 1747 1111.09 1747 1117.94H1726.82C1726.82 1124.9 1726.82 1131.33 1726.82 1137.81H1707.07V1157.41H1726.66V1137.65H1726.72ZM206.213 1117.62H225.968V1098.07H206.371C206.371 1104.87 206.371 1111.35 206.371 1117.78H186.616V1137.39H206.213V1117.62V1117.62ZM-93.9048 1117.62H-74.1497V1098.07H-93.7468V1117.78H-113.502V1137.39H-93.9048V1117.62V1117.62ZM-173.926 1117.62C-167.235 1117.62 -160.492 1117.62 -153.802 1117.62V1137.39H-134.205V1117.78H-153.96V1097.76H-173.978V1038H-194.05V1077.36H-214.121V1058.07H-234.192V1077.84H-273.912V1117.78H-293.667V1137.39H-274.071V1117.62H-253.736V1097.97H-233.823V1117.62H-193.891V1137.39H-174.031V1117.62H-173.926ZM1446.88 1097.44V1117.31H1466.58V1097.6H1486.34V1058.02H1466.74V1097.76C1460.1 1097.7 1453.41 1097.65 1446.78 1097.6V1078.1H1426.91V1097.44C1433.76 1097.44 1440.35 1097.44 1446.88 1097.44V1097.44ZM1626.68 1157.83V1138.07H1607.08V1157.67H1626.78V1197.41H1646.38V1157.78H1626.68V1157.83ZM1246.54 1137.81V1118.05H1226.94V1137.65H1246.7V1177.38H1266.29V1137.75H1246.59L1246.54 1137.81ZM226.179 1157.67H265.9V1138.07H226.284C226.284 1144.87 226.284 1151.35 226.284 1157.78H206.529V1177.38H226.126V1157.62L226.179 1157.67ZM486.26 1117.83V1098.07H466.663V1117.68H486.418V1137.44H525.981V1117.83C512.495 1117.83 499.378 1117.83 486.26 1117.83ZM-454.078 1097.65H-433.796V1077.57H-414.305V1058.07H-453.92V1097.81C-460.558 1097.76 -467.248 1097.7 -473.886 1097.65V1058.02H-494.062V1077.94H-513.765V1097.49C-500.279 1097.49 -487.003 1097.49 -473.78 1097.49V1117.36H-454.078V1097.65V1097.65ZM1206.45 1077.63H1226.15V1038.1H1186.8V1057.81H1206.61V1077.73H1146.82V1097.33H1206.45V1077.57V1077.63ZM246.145 1077.78V1058.02H206.582V1077.63H246.303V1117.31H266.374V1097.55H285.813V1057.92H266.111V1077.73H246.145V1077.78ZM1486.55 1157.83V1138.07H1446.99V1157.67H1486.71V1177.38H1546.39V1157.67H1526.43V1138.02H1506.51V1157.83H1486.55ZM-653.999 1037.79V1018.02H-673.596V1037.63H-653.841V1057.86H-673.859V1077.78H-694.141V1057.92H-714.001V1077.84H-733.756V1097.7H-693.878V1117.62H-673.965V1137.39H-634.402V1117.78H-674.123C-674.123 1104.4 -674.123 1091.01 -674.123 1077.63H-633.875V1097.28H-614.278V1057.6H-634.191V1037.73C-641.198 1037.73 -647.625 1037.73 -654.104 1037.73L-653.999 1037.79ZM26.2057 1117.68H85.9975V1097.6H66.1898C66.1898 1090.59 66.1898 1084.16 66.1898 1077.68H85.9449V1058.07H66.3479V1077.84H26.3638V1117.83H6.60875V1137.44H26.2057V1117.68ZM706.252 1098.13H646.724V1137.49H686.655V1117.68H706.252V1098.13V1098.13ZM606.318 1077.73V1058.02H566.808V1077.99H586.669V1117.41H606.687V1097.55H626.178V1077.68H606.371L606.318 1077.73ZM346.131 1058.13H306.621V1097.86H326.587V1117.52H346.131V1058.13V1058.13ZM1086.87 1137.49H1166.25V1118.05H1086.87V1137.49ZM-554.276 1097.55V1077.63H-573.978V1058.13H-593.628V1097.55H-554.223H-554.276ZM746.183 1117.57V1058.18H726.797V1117.57H746.183ZM-533.994 1118.15H-554.17V1138.02H-573.556V1157.41H-533.994V1118.15ZM-54.0787 1057.55V1018.13H-73.465V1057.55H-54.0787ZM26.6271 1017.97V1057.39H46.0134V1017.97H26.6271ZM626.178 1037.52V1018.08H586.827V1037.52H626.178ZM-393.654 1137.54H-374.163V1098.13H-393.654V1137.54ZM406.608 1117.41H446.013V1098.02H406.608V1117.41ZM-333.494 1117.99V1157.41H-314.107V1117.99H-333.494ZM-694.246 1177.59V1138.12H-713.633V1177.59H-694.246ZM2127.19 1177.59H2146.63V1138.23H2127.19V1177.59ZM546.263 1158.1H526.719V1197.57H546.263V1158.1ZM666.321 998.104H646.776V1017.44H666.321V998.104ZM-434.06 1018.08H-453.446V1037.47H-434.06V1018.08ZM1347 1077.52H1366.49V1058.13H1347V1077.52ZM1767.18 1077.52H1786.61V1058.18H1767.18V1077.52ZM546.421 1078.1H526.877V1097.44H546.421V1078.1ZM386.274 1098.18H366.729V1117.52H386.274V1098.18ZM786.378 1098.18H766.992V1117.57H786.378V1098.18ZM1346.58 1098.07H1327.09V1117.47H1346.58V1098.07ZM1546.45 1117.62V1098.07H1527.11V1117.62H1546.45ZM1647.12 1117.52H1666.56V1098.18H1647.12V1117.52ZM1426.55 1118.1H1407.11V1137.44H1426.55V1118.1ZM1826.55 1137.65V1118.1H1807.26V1137.65H1826.55ZM-613.541 1137.91V1157.46H-594.26V1137.91H-613.541ZM-493.904 1138.12H-513.449V1157.46H-493.904V1138.12ZM306.569 1157.41H326.113V1138.18H306.569V1157.41ZM366.361 1138.12H346.816V1157.41H366.361V1138.12ZM386.853 1138.02V1157.57H406.134V1138.02H386.853ZM586.247 1138.18H566.861V1157.62H586.247V1138.18ZM746.816 1157.52H766.202V1138.07H746.816V1157.52ZM846.328 1157.62V1138.18H826.995V1157.62H846.328ZM1026.86 1157.46H1046.41V1138.18H1026.86V1157.46ZM1306.49 1157.62V1138.12H1287.1V1157.62H1306.49ZM-394.076 1177.65V1158.2H-413.409V1177.65H-394.076ZM-293.404 1158.04V1177.59H-274.071V1158.04H-293.404ZM106.227 1158.15H86.6824V1177.44H106.227V1158.15ZM506.068 1177.65V1158.1H486.734V1177.65H506.068ZM626.284 1158.2H606.739V1177.54H626.284V1158.2ZM906.805 1177.59H926.296V1158.2H906.805V1177.59ZM1146.45 1158.1H1126.9V1177.54H1146.45V1158.1ZM1226.41 1158.1H1206.98V1177.44H1226.41V1158.1ZM1426.44 1177.59V1158.1H1407.05V1177.59H1426.44ZM-473.728 1197.46H-454.342V1178.07H-473.728V1197.46ZM406.134 1178.07H386.59V1197.51H406.134V1178.07ZM1166.83 1197.57H1186.27V1178.23H1166.83V1197.57ZM1826.7 1178.17H1807.16V1197.46H1826.7V1178.17Z" fill="#FF2E00" fill-opacity="0.85"/>
<path d="M86.208 957.737H125.929V937.764H106.543V917.95H126.087V897.714H146.369L146.211 897.556C146.211 924.274 146.211 950.992 146.211 977.71L146.369 977.552H106.226V1017.71L106.384 1017.55H86.366V957.526L86.208 957.684V957.737Z" fill="#FF2E00" fill-opacity="0.85"/>
<path d="M1306.96 1017.92V997.946H1287V977.868H1306.44V957.737H1326.77L1326.61 957.579V977.552H1346.42V1017.76C1333.25 1017.76 1320.03 1017.76 1306.8 1017.76L1306.96 1017.92Z" fill="#FF2E00" fill-opacity="0.85"/>
<path d="M366.308 857.663H386.273V897.45H405.976V937.29H386.537V917.739C379.636 917.739 373.051 917.739 366.466 917.739L366.624 917.897C366.571 897.766 366.518 877.688 366.413 857.558L366.255 857.716L366.308 857.663Z" fill="#FF2E00" fill-opacity="0.85"/>
<path d="M1026.86 977.921V957.948H1006.95V937.712H1026.49V918.003H1046.56V937.501H1066.27V957.579H1046.83V977.815C1039.93 977.815 1033.34 977.815 1026.76 977.815L1026.92 977.973L1026.86 977.921Z" fill="#FF2E00" fill-opacity="0.85"/>
<path d="M146.211 977.71H205.95V997.472H186.511V1017.6H146.211L146.369 1017.76V977.604L146.211 977.763V977.71Z" fill="#FF2E00" fill-opacity="0.85"/>
<path d="M1006.63 1037.79V977.868C1013.43 977.868 1020.12 977.868 1026.86 977.868L1026.7 977.71C1026.7 984.139 1026.7 990.568 1026.7 997.525H1046.51V1017.71L1046.67 1017.55H1026.55V1037.68L1026.7 1037.52H1006.58L1006.74 1037.68L1006.63 1037.79Z" fill="#FF2E00" fill-opacity="0.85"/>
<path d="M306.411 977.763V957.895H326.219V937.765H346.448L346.29 937.606V957.526H366.097V977.657H306.306L306.464 977.815L306.411 977.763Z" fill="#FF2E00" fill-opacity="0.85"/>
<path d="M786.431 957.737H806.396V997.525H826.151V1017.66H786.431L786.589 1017.81V957.632L786.431 957.79V957.737Z" fill="#FF2E00" fill-opacity="0.85"/>
<path d="M786.589 937.712V897.978H806.449V917.529H826.151V937.554H786.431L786.589 937.712V937.712Z" fill="#FF2E00" fill-opacity="0.85"/>
<path d="M526.139 957.421V977.235H466.821V957.526C486.576 957.526 506.436 957.526 526.297 957.526L526.139 957.368V957.421Z" fill="#FF2E00" fill-opacity="0.85"/>
<path d="M1166.73 957.579H1127.01V917.897H1146.5V937.396H1166.57V957.685L1166.73 957.526V957.579Z" fill="#FF2E00" fill-opacity="0.85"/>
<path d="M1066.69 1017.76V997.998H1106.57V1037.79L1106.73 1037.63H1086.5V1017.6H1066.58L1066.74 1017.76H1066.69Z" fill="#FF2E00" fill-opacity="0.85"/>
<path d="M546.158 1017.65H526.508V1037.47H506.806V998.051H546.158V1017.71V1017.65Z" fill="#FF2E00" fill-opacity="0.85"/>
<path d="M686.55 937.553H666.848V897.714H686.55L686.392 897.556C686.392 910.941 686.392 924.326 686.392 937.711L686.55 937.553V937.553Z" fill="#FF2E00" fill-opacity="0.85"/>
<path d="M1406.37 977.447H1386.98V938.028H1406.37V977.447Z" fill="#FF2E00" fill-opacity="0.85"/>
<path d="M966.808 937.343V897.978H986.246V937.343H966.808Z" fill="#FF2E00" fill-opacity="0.85"/>
<path d="M1326.77 957.737V937.976H1366.38V957.579C1353.11 957.579 1339.83 957.579 1326.61 957.579L1326.77 957.737V957.737Z" fill="#FF2E00" fill-opacity="0.85"/>
<path d="M1086.97 937.87H1106.36V977.288H1086.97V937.87Z" fill="#FF2E00" fill-opacity="0.85"/>
<path d="M266.005 937.396H246.566V897.978H266.005V937.396Z" fill="#FF2E00" fill-opacity="0.85"/>
<path d="M766.728 937.343H726.744V918.003H766.57C766.57 924.379 766.57 930.914 766.57 937.501L766.728 937.343Z" fill="#FF2E00" fill-opacity="0.85"/>
<path d="M886.787 957.369C880.044 957.421 873.248 957.474 866.505 957.579L866.663 957.737V918.056H886.681C886.681 931.178 886.681 944.352 886.681 957.579L886.839 957.421L886.787 957.369Z" fill="#FF2E00" fill-opacity="0.85"/>
<path d="M1066.85 917.371V897.978H1106.3V917.371H1066.85Z" fill="#FF2E00" fill-opacity="0.85"/>
<path d="M866.504 957.579V977.341H826.889V957.737C840.164 957.737 853.44 957.737 866.662 957.737L866.504 957.579V957.579Z" fill="#FF2E00" fill-opacity="0.85"/>
<path d="M506.173 897.398H466.821V877.952H506.173V897.398Z" fill="#FF2E00" fill-opacity="0.85"/>
<path d="M586.247 877.847V897.24H546.789V877.847H586.247Z" fill="#FF2E00" fill-opacity="0.85"/>
<path d="M66.3476 957.737V938.028H86.2081V957.79L86.3661 957.632H66.2422L66.4002 957.79L66.3476 957.737Z" fill="#FF2E00" fill-opacity="0.85"/>
<path d="M226.232 938.081V957.316H206.688V938.081H226.232Z" fill="#FF2E00" fill-opacity="0.85"/>
<path d="M546.684 957.369C539.836 957.369 532.987 957.369 526.191 957.369L526.349 957.527C526.349 951.045 526.349 944.615 526.349 937.87H546.579C546.579 944.352 546.579 950.887 546.579 957.474L546.737 957.316L546.684 957.369Z" fill="#FF2E00" fill-opacity="0.85"/>
<path d="M606.528 957.579H586.826V937.976H606.423C606.423 944.563 606.423 951.15 606.423 957.737L606.581 957.579H606.528Z" fill="#FF2E00" fill-opacity="0.85"/>
<path d="M686.392 937.712H706.41V957.737L706.568 957.579H686.444L686.602 957.737C686.602 950.992 686.602 944.299 686.602 937.554L686.444 937.712H686.392Z" fill="#FF2E00" fill-opacity="0.85"/>
<path d="M786.484 937.554C786.484 944.299 786.484 950.992 786.484 957.737L786.642 957.579H766.518L766.676 957.737C766.676 950.939 766.781 944.141 766.834 937.396L766.676 937.554C773.366 937.606 780.004 937.659 786.694 937.712L786.536 937.554H786.484Z" fill="#FF2E00" fill-opacity="0.85"/>
<path d="M926.507 937.606V957.579H906.541L906.699 957.737V937.765H926.665L926.507 937.606Z" fill="#FF2E00" fill-opacity="0.85"/>
<path d="M46.3299 977.763V957.737H66.3484L66.1904 957.579V977.604H46.1719L46.3299 977.763Z" fill="#FF2E00" fill-opacity="0.85"/>
<path d="M426.469 977.763V958.001H446.066V977.605H426.311L426.469 977.763Z" fill="#FF2E00" fill-opacity="0.85"/>
<path d="M566.545 977.604H546.684C546.684 970.753 546.684 964.061 546.684 957.368L546.526 957.526C552.953 957.526 559.38 957.526 566.387 957.526V977.762L566.545 977.604Z" fill="#FF2E00" fill-opacity="0.85"/>
<path d="M906.489 957.579V977.288H886.787C886.787 970.806 886.787 964.113 886.787 957.368L886.629 957.526C893.319 957.579 899.957 957.632 906.647 957.684L906.489 957.526V957.579Z" fill="#FF2E00" fill-opacity="0.85"/>
<path d="M226.389 1017.76V997.998H245.987V1017.6C239.402 1017.6 232.816 1017.6 226.231 1017.6L226.389 1017.76Z" fill="#FF2E00" fill-opacity="0.85"/>
<path d="M326.43 1017.76V997.998H346.29V1017.76L346.448 1017.6H326.324L326.482 1017.76H326.43Z" fill="#FF2E00" fill-opacity="0.85"/>
<path d="M486.155 1017.44H466.821V997.998H486.155V1017.44Z" fill="#FF2E00" fill-opacity="0.85"/>
<path d="M1046.41 817.929V837.322H1027.02V817.929H1046.41Z" fill="#FF2E00" fill-opacity="0.85"/>
<path d="M1166.73 1017.6H1146.97V997.735H1166.73L1166.57 997.577V1017.71L1166.73 1017.55V1017.6Z" fill="#FF2E00" fill-opacity="0.85"/>
<path d="M66.0842 837.796V857.242H46.54V837.796H66.0842Z" fill="#FF2E00" fill-opacity="0.85"/>
<path d="M246.725 837.796H266.111V857.189H246.725V837.796Z" fill="#FF2E00" fill-opacity="0.85"/>
<path d="M366.466 857.505H346.764V837.901H366.361V857.663L366.519 857.505H366.466Z" fill="#FF2E00" fill-opacity="0.85"/>
<path d="M826.731 857.347V837.954H846.223V857.347H826.731Z" fill="#FF2E00" fill-opacity="0.85"/>
<path d="M1286.79 1037.79V1017.92C1293.58 1017.92 1300.27 1017.92 1306.96 1017.92L1306.8 1017.76C1306.75 1024.45 1306.7 1031.09 1306.59 1037.73L1306.75 1037.58H1286.63L1286.79 1037.73V1037.79Z" fill="#FF2E00" fill-opacity="0.85"/>
<path d="M6.50293 877.267V857.821H25.8892V877.267H6.50293Z" fill="#FF2E00" fill-opacity="0.85"/>
<path d="M86.5771 857.821H105.911V877.267H86.5771V857.821Z" fill="#FF2E00" fill-opacity="0.85"/>
<path d="M426.468 877.531H406.766V857.927H426.31V877.689L426.468 877.531Z" fill="#FF2E00" fill-opacity="0.85"/>
<path d="M1066.43 857.979V877.32H1046.88V857.979H1066.43Z" fill="#FF2E00" fill-opacity="0.85"/>
<path d="M1286.26 877.425H1266.98V857.874H1286.26V877.425Z" fill="#FF2E00" fill-opacity="0.85"/>
<path d="M1326.45 877.372H1307.07V857.874H1326.45V877.372Z" fill="#FF2E00" fill-opacity="0.85"/>
<path d="M1366.39 877.478H1347.1V857.927H1366.39V877.478Z" fill="#FF2E00" fill-opacity="0.85"/>
<path d="M146.369 897.714V877.952H165.966V897.556C159.381 897.556 152.796 897.556 146.211 897.556L146.369 897.714Z" fill="#FF2E00" fill-opacity="0.85"/>
<path d="M306.41 897.503H286.708V877.899H306.252V897.661L306.41 897.503Z" fill="#FF2E00" fill-opacity="0.85"/>
<path d="M426.311 877.636H446.013V897.239H426.416V877.478L426.258 877.636H426.311Z" fill="#FF2E00" fill-opacity="0.85"/>
<path d="M686.55 897.714V877.952H706.147V897.556H686.392L686.55 897.714Z" fill="#FF2E00" fill-opacity="0.85"/>
<path d="M1026.23 897.398H1006.84V878.005H1026.23V897.398Z" fill="#FF2E00" fill-opacity="0.85"/>
<path d="M1126.9 877.847H1146.24V897.292H1126.9V877.847Z" fill="#FF2E00" fill-opacity="0.85"/>
<path d="M1186.54 877.899V897.187H1166.99V877.899H1186.54V877.899Z" fill="#FF2E00" fill-opacity="0.85"/>
<path d="M46.54 917.845V897.872H65.8735V917.739C59.4992 917.739 52.9668 917.739 46.3818 917.739L46.54 917.898V917.845Z" fill="#FF2E00" fill-opacity="0.85"/>
<path d="M205.95 917.423H186.616V897.872H205.95V917.423Z" fill="#FF2E00" fill-opacity="0.85"/>
<path d="M306.253 897.661H325.955V917.265H306.358C306.358 910.678 306.358 904.09 306.358 897.503L306.2 897.661H306.253Z" fill="#FF2E00" fill-opacity="0.85"/>
<path d="M1226.84 917.265V897.925H1246.38V917.265H1226.84Z" fill="#FF2E00" fill-opacity="0.85"/>
<path d="M1306.44 917.423H1287.05V897.925H1306.44V917.423Z" fill="#FF2E00" fill-opacity="0.85"/>
<path d="M1366.44 917.37H1347.1V897.925H1366.44V917.37Z" fill="#FF2E00" fill-opacity="0.85"/>
<path d="M26.3114 937.712V917.845C33.1598 917.845 39.8502 917.845 46.5405 917.845L46.3824 917.687C46.3824 924.116 46.3824 930.545 46.3824 937.554C39.3233 937.554 32.7383 937.554 26.1533 937.554L26.3114 937.712Z" fill="#FF2E00" fill-opacity="0.85"/>
<path d="M346.447 937.712V917.845C353.295 917.845 359.986 917.845 366.676 917.845L366.518 917.687C366.518 924.116 366.518 930.545 366.518 937.554H346.289L346.447 937.712Z" fill="#FF2E00" fill-opacity="0.85"/>
<path d="M446.645 917.845H466.084V937.396H446.645V917.845Z" fill="#FF2E00" fill-opacity="0.85"/>
<path d="M486.682 937.343V918.003H506.12V937.343H486.682Z" fill="#FF2E00" fill-opacity="0.85"/>
<path d="M926.612 937.712V917.95H946.209V937.554H926.454L926.612 937.712Z" fill="#FF2E00" fill-opacity="0.85"/>
<path d="M1486.65 957.579C1493.34 957.632 1500.09 957.684 1506.78 957.737L1506.62 957.579C1506.62 970.964 1506.73 984.35 1506.78 997.735H1486.81V1037.42H1407.05V1017.81H1466.48V977.921H1486.6V957.579H1486.65Z" fill="black"/>
<path d="M1066.53 1017.6H1086.44V1037.63H1106.67V1057.6H1126.32V1077.47H1106.78V1097.44H1086.71V1077.89H1066.53V1017.6V1017.6Z" fill="black"/>
<path d="M766.465 957.579H786.589V1017.76H766.623V1037.42H746.762V1017.6H726.48L726.639 1017.76V997.841H766.517V957.579H766.465Z" fill="black"/>
<path d="M46.2236 977.605H66.242V957.579H86.3658V1017.6H106.384C106.332 1024.3 106.279 1031.04 106.226 1037.73L106.384 1037.57H66.5581V997.788H46.2236V977.499V977.605Z" fill="black"/>
<path d="M386.326 1017.76H426.1V1037.52H406.661V1077.41H366.677V1057.97H386.485C386.485 1044.16 386.485 1030.88 386.485 1017.6L386.326 1017.76V1017.76Z" fill="black"/>
<path d="M146.369 977.604V1017.76H106.227V977.604H146.369Z" fill="black"/>
<path d="M26.627 1017.92H46.0132V1057.34H26.627V1017.92Z" fill="black"/>
<path d="M626.178 1037.47H586.826V1018.02H626.178V1037.47Z" fill="black"/>
<path d="M726.428 1017.6V1037.63H686.392L686.55 1037.79V1017.76C700.036 1017.76 713.311 1017.76 726.586 1017.76L726.428 1017.6Z" fill="black"/>
<path d="M686.392 957.579H706.516V997.313H686.392V957.579Z" fill="black"/>
<path d="M666.268 998.051V1017.39H646.724V998.051H666.268Z" fill="black"/>
<path d="M926.454 997.735H946.209V1017.34H926.612V997.577L926.454 997.735Z" fill="black"/>
<path d="M1166.57 1017.76V997.63H1186.27V1017.76H1166.57Z" fill="black"/>
<path d="M306.305 1017.6V1037.36H286.708V1017.76C293.293 1017.76 299.878 1017.76 306.463 1017.76L306.305 1017.6Z" fill="black"/>
<path d="M326.324 1017.6H346.448V1037.31H326.324V1017.6Z" fill="black"/>
<path d="M1026.55 1037.79V1017.66H1046.67V1037.79H1026.55Z" fill="black"/>
<path d="M1346.58 -36.8368H1306.96V-16.9696H1326.35V3.10845H1286.89V23.1865H1266.56L1266.71 23.3446V3.58275H1226.89V63.0791H1246.27V83.0517H1206.87V63.2372H1186.54L1186.69 63.3953L1186.54 23.2392C1193.12 23.2392 1199.71 23.2392 1206.29 23.2392V3.63546H1186.69V23.3973C1180 23.3446 1173.26 23.2919 1166.57 23.2392L1166.73 23.3973V3.68813H1146.6V23.3973L1146.76 23.2392C1133.38 23.2919 1120 23.3446 1106.62 23.3973C1106.62 10.1173 1106.62 -3.10992 1106.62 -16.9169H1126.43V-36.3625H1086.44V3.53004H1067V23.2919H1106.78V63.2899H1066.64L1066.79 63.448V43.4753H1046.88V3.58275H1006.84V-16.3899H946.789V3.10845H926.56V63.3953L926.718 63.2372H906.805V43.5807H866.926V63.0791H886.576V83.3679L886.734 83.2098H866.821V103.024H846.855V63.7114H826.889V83.2625H806.607L806.765 83.4206V43.6861H786.642V83.4206L786.8 83.2625H766.834V63.6061H746.974V83.2625H726.639L726.797 83.4206V43.1592H766.676V23.2392C779.951 23.2392 793.174 23.2392 806.713 23.2392V3.21387C813.298 3.21387 819.883 3.21387 826.468 3.21387V-16.6534H806.765C806.765 -23.2407 806.765 -29.828 806.765 -36.4152H787.168V-16.8115H806.923V3.37196H766.887V23.3973H746.605V3.58275H726.744V23.2392H706.779L706.937 23.3973V3.58275C686.602 3.58275 666.584 3.58275 646.618 3.58275C646.671 -3.21532 646.724 -10.0134 646.776 -16.8115H686.497V-76.3605H607.108C607.108 -69.457 607.108 -62.9752 607.108 -56.4933C600.312 -56.546 593.517 -56.5987 586.721 -56.6514V-76.6767H546.684V-116.358H486.998V-77.0456H506.964V-96.4912H526.877V-76.8348C533.883 -76.8348 540.363 -76.8348 546.842 -76.8348C546.842 -70.2475 546.842 -63.6602 546.842 -56.8094H586.879C586.879 -50.2222 586.879 -43.6876 586.879 -37.0476H606.95V-56.6514H666.584V-36.626H646.934V-16.6534H607.161V3.42466H646.776V43.0537H627.021V23.7135H607.003V43.4226H566.755V23.6608H547.158V43.2645H566.913V63.2372H547V82.9463H507.174V63.3953H526.56V43.528H506.7V3.21387C526.613 3.21387 546.579 3.21387 566.439 3.21387V-36.4679H546.684V-17.1277H526.613V-36.4152H506.858V3.37196C500.168 3.31926 493.425 3.26657 486.734 3.21387L486.892 3.37196V-16.6534H466.769V-36.4152H447.172V-16.8115H466.927C466.927 -10.1188 466.821 -3.37343 466.769 3.31925L466.927 3.16116H446.803V23.2919L446.961 23.1338H426.837L426.995 23.2919V-36.9949H406.819V-56.546H386.748V-36.5733H367.203V-16.7061H386.853V3.26654L387.011 3.10845H326.851V23.2919L327.009 23.1338H307.306V43.2645H327.009L326.851 43.1064V83.2625L327.009 83.1044H307.043V63.448H267.111V82.8936H247.04V63.3426H227.233V43.4226H266.585V23.3446H247.198V-16.9696H226.864L227.022 -16.8115V-36.5206H206.898V-16.8115L207.056 -16.9696H186.932V3.16116L187.09 3.00307H127.193V23.0284H107.175V42.8956H47.1723V103.13H26.8905L27.0485 103.288V83.1571H6.92481L7.08284 83.3152V62.9737H27.2066V23.0811H86.6297V3.47733H6.87207V43.1592H-13.0936L-12.9356 43.3172V23.0811H-33.2701V3.16116H-73.0962L-72.9381 3.31925V-17.0223H-53.2885V-36.4679H-93.1146V3.31925L-92.9565 3.16116H-112.87V62.9737H-152.748V43.4753H-133.309V23.3973H-152.748V3.10845H-173.03L-172.872 3.26654C-172.925 -3.42614 -172.977 -10.1715 -173.03 -16.8642H-113.291V-56.5986H-132.993V-36.6787H-172.925V-16.7061H-212.856V62.9737H-232.717V23.2919H-253.051C-253.051 16.7046 -253.051 10.1173 -253.051 3.53004H-272.648V23.1338H-252.946V43.0537H-273.122V63.2899L-272.964 63.1318C-279.655 63.1318 -286.398 63.1318 -293.088 63.1318L-292.93 63.2899V23.5554H-313.054V63.2899L-312.896 63.1318H-333.019L-332.861 63.2899V43.5807H-352.985V63.2899L-352.827 63.1318H-392.969V103.288L-392.811 103.13H-412.724V63.1318H-432.953L-432.795 63.2899V23.2919H-452.919L-452.708 3.31925C-439.433 3.31925 -426.158 3.31925 -412.935 3.31925V42.7902H-372.635V23.0811H-352.932C-352.932 16.0722 -352.932 9.59034 -352.932 3.16116C-346.347 3.16116 -339.762 3.16116 -333.177 3.16116V-56.7568H-352.88V-96.5439H-372.477V-56.9149H-352.722C-352.722 -36.8368 -352.722 -16.8115 -352.722 3.26654H-372.951V-16.4426H-392.917V3.47733C-399.818 3.47733 -406.403 3.47733 -412.988 3.47733C-412.935 -9.96072 -412.882 -23.3988 -412.83 -36.8895C-406.245 -36.8895 -399.66 -36.8895 -393.075 -36.8895V-76.4659H-412.672V-36.7314H-472.411V-16.548H-452.498C-452.498 -9.53911 -452.498 -3.05722 -452.498 3.42466C-459.188 3.42466 -465.878 3.42466 -472.727 3.42466V23.2919H-493.009V3.10845H-552.906L-552.748 3.26654V-17.0223H-572.977V-36.8895H-592.468V-77.0983H-573.082C-573.082 -84.1072 -573.082 -90.589 -573.082 -97.0709C-559.807 -97.0709 -546.531 -97.0709 -532.729 -97.0709V-77.2037H-493.061V-96.9128H-512.869V-116.885C-506.284 -116.885 -499.699 -116.885 -493.114 -116.885V-136.489H-512.711V-116.727H-572.924V-96.9128H-613.014V-56.6514H-632.927V3.31925L-632.769 3.16116H-672.489V-36.7314H-653.05V-56.5986H-672.753V-76.5186H-692.613V-16.6534H-712.895V-36.7314H-753.985V-116.78C-747.295 -116.78 -740.605 -116.833 -733.914 -116.885V-77.0983H-714.317V-116.727H-734.072V-136.805H-753.985V-457C246.355 -457 1246.7 -457 2246.98 -457V-16.7588H2227.33V3.26654H2246.98V23.2919H2207.16V3.58275H2186.88V43.3699L2187.03 43.2118H2127.08V23.45H2107.17V3.16116H2046.85L2047.01 3.31925V-16.3899H2026.89V3.31925L2027.05 3.16116H2006.92V23.2919L2007.08 23.1338L1986.96 23.2919C1986.96 16.7046 1986.96 10.1173 1986.96 3.53004H1967.36V23.1338H1987.11C1987.11 43.1064 1987.11 63.1318 1987.11 83.1044L1987.27 82.9463C1980.53 82.999 1973.73 83.0517 1966.99 83.1571L1967.15 83.3152V43.5807H1927.11V63.1318H1907.25V103.182H1886.97L1887.13 103.341V83.3679H1867.32V63.5006H1886.97V43.2118H1906.67V3.53004C1886.44 3.53004 1866.63 3.53004 1846.83 3.53004C1846.83 -3.16263 1846.83 -9.85529 1846.83 -16.7061H1826.97V-36.9949H1846.77V-56.4933H1787.35V3.16116H1807.11V22.923H1826.97V3.21387L1846.93 3.42466V23.5554H1887.13V43.4226C1847.09 43.4226 1807 43.4226 1766.96 43.4226V23.6608H1747.37V43.2645H1767.12V82.9463H1747.21V63.2372H1726.98L1727.14 63.3953V3.63546H1706.86V23.3973H1647.01C1647.01 10.1173 1647.01 -3.10995 1647.01 -16.6534H1626.99V-36.4152H1607.13V-16.6534H1587.38V23.5027H1606.97V43.4226L1607.13 43.2645H1567.2V83.1044H1547.34V43.4753H1527.27V23.5554H1506.99V-16.7588C1513.57 -16.7588 1520.16 -16.7588 1527.27 -16.7588V-36.8895H1546.76V-56.3879H1507.09V-16.6007H1487.34V43.1592H1506.62V103.288H1466.95L1467.11 103.446V83.5787H1486.71V63.2899H1446.93L1447.09 63.448V43.1592H1426.76V3.37196C1413.17 3.37196 1400.05 3.37196 1386.93 3.37196V-16.3899H1367.33V3.21387H1387.09C1387.09 9.90655 1386.98 16.6519 1386.93 23.3446L1387.09 23.1865H1346.95L1347.1 23.3446C1347.1 5.0583 1347.1 -13.228 1347 -31.5143C1347 -33.3587 1346.84 -35.1505 1346.74 -36.9949C1353.32 -36.9949 1359.96 -36.9949 1367.07 -36.9949V-56.9675H1386.77V-76.5186C1373.29 -76.5186 1360.01 -76.5186 1346.79 -76.5186C1346.79 -83.3167 1346.89 -90.0621 1346.95 -96.8601C1353.53 -96.8601 1360.12 -96.8601 1366.7 -96.8601V-116.464H1347.1V-96.702H1327.35V-76.6767H1346.95C1346.95 -63.3967 1346.95 -50.1168 1346.95 -36.8895L1346.58 -36.8368ZM626.547 -136.7H606.792V-117.149H626.389C626.389 -123.947 626.389 -130.429 626.389 -136.858H646.144V-156.462H626.547V-136.7V-136.7ZM826.626 -136.7H806.871V-117.149H826.468V-136.858H846.223V-156.462H826.626V-136.7V-136.7ZM2146.94 -136.7V-156.462H2127.35V-136.858H2147.1V-117.096H2166.65V-136.7H2146.94ZM-233.718 -96.6493H-253.894V-76.8348H-273.491V-56.5986H-253.841V-16.9169H-233.718V-36.8368H-213.857V-56.7568H-194.102V-76.3605H-213.699V-56.5986C-227.133 -56.5459 -240.566 -56.4933 -253.999 -56.4406C-253.999 -63.2913 -253.999 -70.0894 -253.999 -76.9402H-233.823C-233.823 -83.8963 -233.823 -90.3256 -233.823 -96.8074H-214.068V-116.411H-233.665V-96.6493H-233.718ZM1286.79 -76.624H1267.03V-57.0729H1286.63C1286.63 -63.871 1286.63 -70.3529 1286.63 -76.7821H1306.38V-96.3858H1286.79V-76.624ZM1586.9 -76.624H1567.15V-57.0729H1586.75V-76.7821H1606.5V-96.3858H1586.9V-76.624ZM1666.92 -76.624C1660.23 -76.624 1653.49 -76.624 1646.8 -76.624V-96.3858H1627.2V-76.7821H1646.96V-56.7568H1666.98V3.00307H1687.05V-36.3625H1707.12V-17.075H1727.19V-36.8368H1766.91V-76.7821H1786.67V-96.3858H1767.07V-76.624H1746.74V-56.9675H1726.82V-76.624H1686.89V-96.3858H1667.03V-76.624H1666.92ZM46.1188 -56.4406V-76.3078H26.4164V-56.5986H6.66139V-17.0223H26.2584V-56.7568C32.896 -56.7041 39.5864 -56.6513 46.2241 -56.5986V-37.1003H66.0844V-56.4406C59.236 -56.4406 52.6511 -56.4406 46.1188 -56.4406ZM-133.678 -116.833V-97.0709H-114.081V-116.675H-133.784V-156.409H-153.38V-116.78C-146.585 -116.78 -140.105 -116.78 -133.678 -116.78V-116.833ZM246.461 -96.8074V-77.0456H266.058V-96.6493H246.303V-136.384H226.706V-96.7547H246.408L246.461 -96.8074ZM1266.82 -116.675H1227.1V-97.0709H1266.71C1266.71 -103.869 1266.71 -110.351 1266.71 -116.78H1286.47V-136.384H1266.87V-116.622L1266.82 -116.675ZM1006.74 -76.8348V-57.0729H1026.34V-76.6767H1006.58V-96.4386H967.018V-76.8348C980.504 -76.8348 993.622 -76.8348 1006.74 -76.8348V-76.8348ZM1947.08 -56.6514H1926.8V-36.5733H1907.3V-17.075H1946.92V-56.8094C1953.56 -56.7567 1960.25 -56.7041 1966.88 -56.6514V-17.0223H1987.06V-36.9422H2006.76V-56.4933C1993.28 -56.4933 1980 -56.4933 1966.78 -56.4933V-76.3605H1947.08V-56.6514ZM286.55 -36.626H266.848V2.89765H306.2V-16.8115H286.392V-36.7314H346.184V-56.3352H286.55V-36.5733V-36.626ZM1246.85 -36.7841V-17.0223H1286.42V-36.626H1246.7V-76.3078H1226.63V-56.546H1207.19V-16.9169H1226.89V-36.7314H1246.85V-36.7841ZM6.45071 -116.833V-97.0709H46.0134V-116.675H6.29267V-136.384H-53.3938V-116.675H-33.4281V-97.0182H-13.5151V-116.833C-6.50862 -116.833 -0.0289368 -116.833 6.45071 -116.833V-116.833ZM2147.16 3.26654V23.0284H2166.75V3.42466H2147V-16.8115H2167.02V-36.7314H2187.3V-16.8642H2207.16V-36.7841H2226.86V-56.6514H2186.98V-76.5713C2179.98 -76.5713 2173.5 -76.5713 2167.07 -76.5713V-96.3331H2127.51V-76.7294H2167.23C2167.23 -63.344 2167.23 -49.9587 2167.23 -36.5733H2126.98V-56.2298H2107.38V-16.548H2127.3V3.31925C2134.3 3.31925 2140.73 3.31925 2147.21 3.31925L2147.16 3.26654ZM1466.95 -76.624H1407.16V-56.546H1426.97C1426.97 -49.5371 1426.97 -43.1079 1426.97 -36.626H1407.21V-17.0223H1426.81V-36.7841H1466.79V-76.7821H1486.55V-96.3858H1466.95V-76.624V-76.624ZM786.905 -57.0729H846.433V-96.4386H806.502V-76.624H786.905V-57.0729ZM886.839 -36.6787V-16.9696H926.349V-36.9422H906.489V-76.3605H886.47V-56.4933H866.979V-36.626H886.786L886.839 -36.6787ZM1147.03 -17.075H1186.54V-56.8094H1166.57V-76.4659H1147.03V-17.075V-17.075ZM406.292 -96.4386H326.903V-76.9929H406.292V-96.4386ZM2047.43 -56.4933V-36.5733H2067.13V-17.075H2086.78V-56.4933H2047.38H2047.43ZM746.974 -76.5186V-17.1277H766.36V-76.5186H746.974ZM2027.15 -77.0983H2047.33V-96.9655H2066.71V-116.358H2027.15V-77.0983ZM1547.24 -16.4953V22.923H1566.62V-16.4953H1547.24ZM1466.53 23.0811V-16.3372H1447.14V23.0811H1466.53ZM866.979 3.53004V22.9757H906.331V3.53004H866.979ZM1886.81 -96.4912H1867.32V-57.0729H1886.81V-96.4912ZM1086.55 -76.3605H1047.14V-56.9675H1086.55V-76.3605ZM1826.65 -76.9402V-116.358H1807.26V-76.9402H1826.65ZM2187.4 -136.542V-97.0709H2206.79V-136.542H2187.4V-136.542ZM-634.033 -136.542H-653.472V-97.1763H-634.033V-136.542ZM946.894 -117.044H966.439V-156.515H946.894V-117.044ZM826.836 42.9484H846.381V23.6081H826.836V42.9484ZM1927.22 22.9757H1946.6V3.58275H1927.22V22.9757ZM146.158 -36.4679H126.666V-17.075H146.158V-36.4679ZM-274.018 -36.4679H-293.457V-17.1277H-274.018V-36.4679ZM946.736 -37.0476H966.28V-56.3879H946.736V-37.0476ZM1106.88 -57.1257H1126.43V-76.4659H1106.88V-57.1257ZM706.779 -57.1257H726.165V-76.5186H706.779V-57.1257ZM146.579 -57.0202H166.071V-76.4132H146.579V-57.0202ZM-53.2885 -76.5713V-57.0202H-33.9549V-76.5713H-53.2885ZM-153.96 -76.4659H-173.399V-57.1257H-153.96V-76.4659ZM66.6113 -77.0456H86.0502V-96.3858H66.6113V-77.0456ZM-333.388 -96.5966V-77.0456H-314.107V-96.5966H-333.388ZM2106.7 -96.8601V-116.411H2087.42V-96.8601H2106.7ZM1987.06 -97.0709H2006.61V-116.411H1987.06V-97.0709ZM1186.59 -116.358H1167.04V-97.1236H1186.59V-116.358ZM1126.8 -97.0709H1146.34V-116.358H1126.8V-97.0709ZM1106.3 -96.9655V-116.517H1087.02V-96.9655H1106.3ZM906.91 -97.1236H926.296V-116.569H906.91V-97.1236ZM746.341 -116.464H726.955V-97.0182H746.341V-116.464ZM646.829 -116.569V-97.1236H666.162V-116.569H646.829ZM466.295 -116.411H446.75V-97.1236H466.295V-116.411ZM186.669 -116.569V-97.0709H206.055V-116.569H186.669ZM1887.23 -136.595V-117.149H1906.57V-136.595H1887.23ZM1786.56 -116.991V-136.542H1767.23V-116.991H1786.56ZM1386.93 -117.096H1406.47V-136.384H1386.93V-117.096ZM987.089 -136.595V-117.044H1006.42V-136.595H987.089V-136.595ZM866.873 -117.149H886.418V-136.489H866.873V-117.149ZM586.352 -136.542H566.861V-117.149H586.352V-136.542ZM346.711 -117.044H366.255V-136.489H346.711V-117.044ZM266.743 -117.044H286.182V-136.384H266.743V-117.044ZM66.7166 -136.542V-117.044H86.1029V-136.542H66.7166ZM1966.88 -156.409H1947.5V-137.016H1966.88V-156.409ZM1087.02 -137.016H1106.57V-156.462H1087.02V-137.016ZM326.324 -156.515H306.885V-137.174H326.324V-156.515ZM-333.546 -137.122H-314.002V-156.409H-333.546V-137.122V-137.122Z" fill="#FF2E00" fill-opacity="0.85"/>
<path d="M26.2057 103.288V123.208H-53.71V143.128H-73.5703V83.4206H-93.4834V43.528H-73.6757V23.1865L-73.8337 23.3446H-53.4992V63.0264H-33.6389V43.3699H-13.6732L-13.8312 43.2118C-13.8312 56.5972 -13.7258 69.9826 -13.6732 83.3679C-26.8958 83.3679 -40.1185 83.3679 -53.4466 83.3679V102.972H-13.8312V83.2098C-7.14083 83.2625 -0.397749 83.3152 6.29261 83.3679L6.1345 83.2098V103.341H26.2583L26.1003 103.182L26.2057 103.288Z" fill="#FF2E00" fill-opacity="0.85"/>
<path d="M1406.79 83.2626H1367.07V103.235H1386.46V123.05H1366.91V143.286H1346.63L1346.79 143.444C1346.79 116.726 1346.79 90.008 1346.79 63.29L1346.63 63.4481H1386.77V23.292L1386.61 23.4501H1406.63V83.4734L1406.79 83.3153V83.2626Z" fill="#FF2E00" fill-opacity="0.85"/>
<path d="M186.037 23.0811V43.0537H206.002V63.1317H186.563V83.2625H166.229L166.387 83.4206V63.4479H146.579V23.2391C159.749 23.2391 172.972 23.2391 186.195 23.2391L186.037 23.0811Z" fill="#FF2E00" fill-opacity="0.85"/>
<path d="M1126.69 183.336H1106.73V143.549H1087.02V103.656H1106.46V123.207C1113.36 123.207 1119.95 123.207 1126.53 123.207L1126.38 123.049C1126.43 143.18 1126.48 163.258 1126.59 183.389L1126.74 183.231L1126.69 183.336Z" fill="#FF2E00" fill-opacity="0.85"/>
<path d="M466.137 63.0791V83.0518H486.05V103.288H466.506V122.997H446.435V103.499H426.732V83.4206H446.171V63.1845C453.072 63.1845 459.657 63.1845 466.242 63.1845L466.084 63.0264L466.137 63.0791Z" fill="#FF2E00" fill-opacity="0.85"/>
<path d="M1346.79 63.2371H1287.05V43.4753H1306.49V23.3446H1346.79L1346.63 23.1865V63.3425L1346.79 63.1844V63.2371Z" fill="#FF2E00" fill-opacity="0.85"/>
<path d="M486.366 3.21387V63.1318C479.57 63.1318 472.88 63.1318 466.137 63.1318L466.295 63.2899C466.295 56.8608 466.295 50.4315 466.295 43.4754H446.487V23.2919L446.329 23.45H466.453V3.31925L466.295 3.47733H486.419L486.26 3.31925L486.366 3.21387Z" fill="#FF2E00" fill-opacity="0.85"/>
<path d="M1186.59 63.2373V83.1045H1166.78V103.235H1146.55L1146.71 103.393V83.4734H1126.9V63.3427C1146.92 63.3427 1166.83 63.3427 1186.69 63.3427L1186.54 63.1846L1186.59 63.2373Z" fill="#FF2E00" fill-opacity="0.85"/>
<path d="M706.569 83.2625H686.603V43.4753H666.848V23.3446H706.569L706.411 23.1865V83.3679L706.569 83.2098V83.2625Z" fill="#FF2E00" fill-opacity="0.85"/>
<path d="M706.411 103.288V143.023H686.55V123.471H666.848V103.446H706.569L706.411 103.288V103.288Z" fill="#FF2E00" fill-opacity="0.85"/>
<path d="M966.86 83.5783V63.7637H1026.18V83.4728C1006.42 83.4728 986.563 83.4728 966.702 83.4728L966.86 83.6309V83.5783Z" fill="#FF2E00" fill-opacity="0.85"/>
<path d="M26.2062 163.311V183.021H-33.4277V163.417H26.3115L26.1534 163.259L26.2062 163.311Z" fill="#FF2E00" fill-opacity="0.85"/>
<path d="M326.271 83.3681H365.992V123.05H346.501V103.552H326.43V83.2627L326.271 83.4208V83.3681Z" fill="#FF2E00" fill-opacity="0.85"/>
<path d="M426.31 23.2392V43.0011H386.431V3.21387L386.273 3.37196H406.503V23.3973H426.416L426.258 23.2392H426.31Z" fill="#FF2E00" fill-opacity="0.85"/>
<path d="M946.842 23.3449H966.492V3.53027H986.194V42.9487H946.842V23.2922V23.3449Z" fill="#FF2E00" fill-opacity="0.85"/>
<path d="M806.449 103.446H826.152V143.286H806.449L806.607 143.444C806.607 130.059 806.607 116.673 806.607 103.288L806.449 103.446Z" fill="#FF2E00" fill-opacity="0.85"/>
<path d="M86.6299 63.5537H106.016V102.972H86.6299V63.5537Z" fill="#FF2E00" fill-opacity="0.85"/>
<path d="M526.192 103.604V142.969H506.753V103.604H526.192Z" fill="#FF2E00" fill-opacity="0.85"/>
<path d="M166.282 83.2627V103.024H126.667V83.4208C139.942 83.4208 153.218 83.4208 166.44 83.4208L166.282 83.2627Z" fill="#FF2E00" fill-opacity="0.85"/>
<path d="M406.029 103.129H386.643V63.7109H406.029V103.129Z" fill="#FF2E00" fill-opacity="0.85"/>
<path d="M1226.99 103.604H1246.43V143.022H1226.99V103.604Z" fill="#FF2E00" fill-opacity="0.85"/>
<path d="M726.271 103.604H766.254V122.945H726.429C726.429 116.568 726.429 110.034 726.429 103.446L726.271 103.604Z" fill="#FF2E00" fill-opacity="0.85"/>
<path d="M606.213 83.6316C612.956 83.5789 619.752 83.5262 626.495 83.4208L626.337 83.2627V122.945H606.318C606.318 109.823 606.318 96.6481 606.318 83.4208L606.16 83.5789L606.213 83.6316Z" fill="#FF2E00" fill-opacity="0.85"/>
<path d="M426.153 123.63V143.023H386.695V123.63H426.153Z" fill="#FF2E00" fill-opacity="0.85"/>
<path d="M626.547 83.4201V63.6582H666.162V83.262H626.389L626.547 83.4201V83.4201Z" fill="#FF2E00" fill-opacity="0.85"/>
<path d="M986.879 143.602H1026.23V163.047H986.879V143.602Z" fill="#FF2E00" fill-opacity="0.85"/>
<path d="M906.805 163.1V143.707H946.262V163.1H906.805Z" fill="#FF2E00" fill-opacity="0.85"/>
<path d="M1426.65 83.2626V102.972H1406.79V83.21L1406.63 83.368H1426.76L1426.6 83.21L1426.65 83.2626Z" fill="#FF2E00" fill-opacity="0.85"/>
<path d="M1266.77 102.918V83.6836H1286.31V102.918H1266.77Z" fill="#FF2E00" fill-opacity="0.85"/>
<path d="M946.315 83.6317C953.164 83.6317 960.012 83.6317 966.808 83.6317L966.65 83.4736C966.65 89.9555 966.65 96.3847 966.65 103.13H946.421C946.421 96.6482 946.421 90.1136 946.421 83.5263L946.263 83.6844L946.315 83.6317Z" fill="#FF2E00" fill-opacity="0.85"/>
<path d="M886.471 83.368H906.173V102.972H886.576C886.576 96.3844 886.576 89.7972 886.576 83.21L886.418 83.368H886.471Z" fill="#FF2E00" fill-opacity="0.85"/>
<path d="M806.608 103.288H786.59V83.2627L786.432 83.4208H806.555L806.397 83.2627C806.397 90.0081 806.397 96.7008 806.397 103.446L806.555 103.288H806.608Z" fill="#FF2E00" fill-opacity="0.85"/>
<path d="M706.568 103.446C706.568 96.7007 706.568 90.0081 706.568 83.2627L706.41 83.4208H726.534L726.376 83.2627C726.376 90.0608 726.271 96.8588 726.218 103.604L726.376 103.446C719.686 103.393 713.048 103.341 706.357 103.288L706.515 103.446H706.568Z" fill="#FF2E00" fill-opacity="0.85"/>
<path d="M566.545 103.393V83.4208H586.51L586.352 83.2627V103.235H566.387L566.545 103.393Z" fill="#FF2E00" fill-opacity="0.85"/>
<path d="M1446.67 63.2373V83.2626H1426.65L1426.81 83.4208V63.3954H1446.83L1446.67 63.2373Z" fill="#FF2E00" fill-opacity="0.85"/>
<path d="M1066.53 63.2373V82.9991H1046.93V63.3954C1053.52 63.3954 1060.1 63.3954 1066.69 63.3954L1066.53 63.2373Z" fill="#FF2E00" fill-opacity="0.85"/>
<path d="M926.455 63.3954H946.315C946.315 70.2462 946.315 76.9388 946.315 83.6315L946.474 83.4734C940.047 83.4734 933.62 83.4734 926.613 83.4734V63.2373L926.455 63.3954Z" fill="#FF2E00" fill-opacity="0.85"/>
<path d="M586.511 83.4201V63.7109H606.213C606.213 70.1928 606.213 76.8855 606.213 83.6309L606.371 83.4728C599.681 83.4201 593.043 83.3674 586.353 83.3147L586.511 83.4728V83.4201Z" fill="#FF2E00" fill-opacity="0.85"/>
<path d="M1266.61 23.1865V42.9484H1247.01V23.3446C1253.6 23.3446 1260.18 23.3446 1266.77 23.3446L1266.61 23.1865Z" fill="#FF2E00" fill-opacity="0.85"/>
<path d="M1166.57 23.2393V43.0012H1146.71V23.2393L1146.55 23.3974H1166.68L1166.52 23.2393H1166.57Z" fill="#FF2E00" fill-opacity="0.85"/>
<path d="M1006.9 23.5557H1026.23V43.0013H1006.9V23.5557Z" fill="#FF2E00" fill-opacity="0.85"/>
<path d="M446.645 223.071V203.678H466.031V223.071H446.645Z" fill="#FF2E00" fill-opacity="0.85"/>
<path d="M326.271 23.3447H346.027V43.2119H326.271L326.43 43.37V23.2393L326.271 23.3974V23.3447Z" fill="#FF2E00" fill-opacity="0.85"/>
<path d="M1426.92 203.151V183.705H1446.46V203.151H1426.92Z" fill="#FF2E00" fill-opacity="0.85"/>
<path d="M1246.33 203.203H1226.94V183.811H1246.33V203.203Z" fill="#FF2E00" fill-opacity="0.85"/>
<path d="M1126.53 183.442H1146.24V203.046H1126.64V183.284L1126.48 183.442H1126.53Z" fill="#FF2E00" fill-opacity="0.85"/>
<path d="M666.268 183.652V203.045H646.776V183.652H666.268Z" fill="#FF2E00" fill-opacity="0.85"/>
<path d="M206.266 3.21387V23.0811C199.471 23.0811 192.78 23.0811 186.09 23.0811L186.248 23.2392C186.301 16.5465 186.353 9.90651 186.459 3.26654L186.301 3.42466H206.424L206.266 3.26654V3.21387Z" fill="#FF2E00" fill-opacity="0.85"/>
<path d="M1406.42 183.178H1387.09V163.732H1406.42V183.178Z" fill="#FF2E00" fill-opacity="0.85"/>
<path d="M1066.53 163.47H1086.23V183.073H1066.69V163.312L1066.53 163.47V163.47Z" fill="#FF2E00" fill-opacity="0.85"/>
<path d="M426.574 183.02V163.68H446.118V183.02H426.574Z" fill="#FF2E00" fill-opacity="0.85"/>
<path d="M226.284 -16.8115V3.2138H206.266L206.424 3.37189V-16.7588L206.266 -16.6007H226.389L226.231 -16.7588L226.284 -16.8115Z" fill="#FF2E00" fill-opacity="0.85"/>
<path d="M206.74 163.574H226.021V183.125H206.74V163.574Z" fill="#FF2E00" fill-opacity="0.85"/>
<path d="M166.598 163.627H185.984V183.125H166.598V163.627Z" fill="#FF2E00" fill-opacity="0.85"/>
<path d="M126.614 163.469H145.895V183.02H126.614V163.469Z" fill="#FF2E00" fill-opacity="0.85"/>
<path d="M1346.63 143.286V163.048H1327.03V143.444C1333.62 143.444 1340.2 143.444 1346.79 143.444L1346.63 143.286Z" fill="#FF2E00" fill-opacity="0.85"/>
<path d="M1186.59 143.444H1206.29V163.048H1186.75V143.286L1186.59 143.444V143.444Z" fill="#FF2E00" fill-opacity="0.85"/>
<path d="M1066.69 163.311H1046.99V143.707H1066.58V163.469L1066.74 163.311H1066.69Z" fill="#FF2E00" fill-opacity="0.85"/>
<path d="M806.45 143.286V163.048H786.853V143.444H806.608L806.45 143.286Z" fill="#FF2E00" fill-opacity="0.85"/>
<path d="M466.769 143.602H486.155V162.995H466.769V143.602Z" fill="#FF2E00" fill-opacity="0.85"/>
<path d="M366.097 163.153H346.764V143.707H366.097V163.153Z" fill="#FF2E00" fill-opacity="0.85"/>
<path d="M306.463 163.047V143.76H326.007V163.047H306.463Z" fill="#FF2E00" fill-opacity="0.85"/>
<path d="M26.3114 163.469V143.707H45.9083V163.311H26.1533L26.3114 163.469Z" fill="#FF2E00" fill-opacity="0.85"/>
<path d="M1446.46 123.103V143.075H1427.12V123.208C1433.5 123.208 1440.03 123.208 1446.62 123.208L1446.46 123.05V123.103Z" fill="#FF2E00" fill-opacity="0.85"/>
<path d="M1287.1 123.524H1306.44V143.075H1287.1V123.524Z" fill="#FF2E00" fill-opacity="0.85"/>
<path d="M1186.75 143.338H1167.04V123.734H1186.64C1186.64 130.322 1186.64 136.909 1186.64 143.496L1186.8 143.338H1186.75Z" fill="#FF2E00" fill-opacity="0.85"/>
<path d="M266.163 123.734V143.075H246.619V123.734H266.163Z" fill="#FF2E00" fill-opacity="0.85"/>
<path d="M186.616 123.576H206.002V143.075H186.616V123.576Z" fill="#FF2E00" fill-opacity="0.85"/>
<path d="M126.614 123.63H145.948V143.076H126.614V123.63Z" fill="#FF2E00" fill-opacity="0.85"/>
<path d="M1146.6 103.235V123.103C1139.76 123.103 1133.07 123.103 1126.38 123.103L1126.53 123.261C1126.53 116.832 1126.53 110.402 1126.53 103.393H1146.76L1146.6 103.235Z" fill="#FF2E00" fill-opacity="0.85"/>
<path d="M1046.35 123.155H1026.92V103.604H1046.35V123.155Z" fill="#FF2E00" fill-opacity="0.85"/>
<path d="M1006.37 103.656V122.997H986.932V103.656H1006.37Z" fill="#FF2E00" fill-opacity="0.85"/>
<path d="M566.387 103.235V122.997H546.79V103.393H566.545L566.387 103.235Z" fill="#FF2E00" fill-opacity="0.85"/>
<path d="M6.34546 83.4209C-0.344892 83.3682 -7.08797 83.3155 -13.7783 83.2628L-13.6203 83.4209C-13.6203 70.0356 -13.7256 56.6502 -13.7783 43.2648H6.18743V3.58301H85.9449V23.1868H26.5219V63.0794H6.39811V83.4209H6.34546Z" fill="black"/>
<path d="M426.469 23.3448H406.555V3.31939H386.326V-16.6533H366.677V-36.5205H386.221V-56.4932H406.292V-36.9421H426.469V23.3448V23.3448Z" fill="black"/>
<path d="M726.587 83.4209H706.463V23.2394H726.428V3.58301H746.289V23.3976H766.571L766.413 23.2394V43.1594H726.534V83.4209H726.587Z" fill="black"/>
<path d="M1446.83 63.3954H1426.81V83.4207H1406.69V23.3974H1386.67C1386.72 16.7047 1386.77 9.95928 1386.83 3.2666L1386.67 3.42473H1426.49V43.2119H1446.83V63.5007V63.3954Z" fill="black"/>
<path d="M1106.73 23.2393H1066.95V3.47751H1086.39V-36.415H1126.38V-16.9694H1106.57C1106.57 -3.16245 1106.57 10.1175 1106.57 23.3448L1106.73 23.1867V23.2393Z" fill="black"/>
<path d="M506.49 3.3721V-36.4151H526.245V-17.1275H546.316V-36.4678H566.071V3.21401C546.211 3.21401 526.298 3.21401 506.332 3.21401L506.49 3.3721Z" fill="black"/>
<path d="M1346.63 63.3954V23.2393H1386.77V63.3954H1346.63Z" fill="black"/>
<path d="M286.287 -36.7842V-16.8643H306.095V2.84494H266.743V-36.6788H286.445L286.287 -36.8369V-36.7842Z" fill="black"/>
<path d="M866.821 3.53027H906.173V22.976H866.821V3.53027Z" fill="black"/>
<path d="M766.571 23.3973V3.37196H806.608L806.45 3.21387V23.2392C792.964 23.2392 779.688 23.2392 766.413 23.2392L766.571 23.3973Z" fill="black"/>
<path d="M646.408 -16.8115C646.355 -10.0134 646.302 -3.21535 646.249 3.58273L646.408 3.42465C633.29 3.42465 620.225 3.42465 606.792 3.42465V-16.6534H646.566L646.408 -16.8115V-16.8115Z" fill="black"/>
<path d="M806.608 83.421H786.484V43.6865H806.608V83.421Z" fill="black"/>
<path d="M26.364 103.393H6.24023V83.2627H26.364V103.393Z" fill="black"/>
<path d="M826.731 42.9487V23.6084H846.276V42.9487H826.731Z" fill="black"/>
<path d="M566.545 43.265H546.79V23.6611H566.387V43.4231L566.545 43.265Z" fill="black"/>
<path d="M326.429 23.2393V43.37H306.727V23.2393H326.429Z" fill="black"/>
<path d="M1186.69 23.3976V3.63574H1206.29V23.2395C1199.71 23.2395 1193.12 23.2395 1186.54 23.2395L1186.69 23.3976Z" fill="black"/>
<path d="M1166.73 23.3448H1146.6V3.63574H1166.73V23.3448Z" fill="black"/>
<path d="M466.506 3.21387V23.3446H446.382V3.21387H466.506Z" fill="black"/>
<path d="M1386.83 3.21404H1367.07V-16.3896H1386.67V3.37213L1386.83 3.21404Z" fill="black"/>
<path d="M806.607 3.37189V-16.8115L806.502 -16.6534H826.204V3.2138C819.619 3.2138 813.034 3.2138 806.449 3.2138L806.607 3.37189Z" fill="black"/>
<path d="M486.472 3.37188H466.348C466.4 -3.32078 466.453 -10.0661 466.506 -16.7588L466.348 -16.6007H486.472V3.42459V3.37188Z" fill="black"/>
<path d="M206.424 -16.8115V3.31918H186.301V-16.8115H206.424Z" fill="black"/>
</g>
<g filter="url(#filter1_b_510_3451)">
<rect x="4" width="1440" height="1024" fill="black" fill-opacity="0.4"/>
</g>
</g>
<defs>
<filter id="filter0_d_510_3451" x="0" y="0" width="1448" height="1032" filterUnits="userSpaceOnUse" color-interpolation-filters="sRGB">
<feFlood flood-opacity="0" result="BackgroundImageFix"/>
<feColorMatrix in="SourceAlpha" type="matrix" values="0 0 0 0 0 0 0 0 0 0 0 0 0 0 0 0 0 0 127 0" result="hardAlpha"/>
<feOffset dy="4"/>
<feGaussianBlur stdDeviation="2"/>
<feComposite in2="hardAlpha" operator="out"/>
<feColorMatrix type="matrix" values="0 0 0 0 0 0 0 0 0 0 0 0 0 0 0 0 0 0 0.25 0"/>
<feBlend mode="normal" in2="BackgroundImageFix" result="effect1_dropShadow_510_3451"/>
<feBlend mode="normal" in="SourceGraphic" in2="effect1_dropShadow_510_3451" result="shape"/>
</filter>
<filter id="filter1_b_510_3451" x="-6" y="-10" width="1460" height="1044" filterUnits="userSpaceOnUse" color-interpolation-filters="sRGB">
<feFlood flood-opacity="0" result="BackgroundImageFix"/>
<feGaussianBlur in="BackgroundImage" stdDeviation="5"/>
<feComposite in2="SourceAlpha" operator="in" result="effect1_backgroundBlur_510_3451"/>
<feBlend mode="normal" in="SourceGraphic" in2="effect1_backgroundBlur_510_3451" result="shape"/>
</filter>
<clipPath id="clip0_510_3451">
<rect width="1440" height="1024" fill="white" transform="translate(4)"/>
</clipPath>
<clipPath id="clip1_510_3451">
<rect width="3001" height="1955" fill="white" transform="translate(-754 -457)"/>
</clipPath>
</defs>
</svg>
