<svg width="236" height="168" viewBox="0 0 236 168" fill="none" xmlns="http://www.w3.org/2000/svg">
<g clip-path="url(#clip0_501_1336)">
<path d="M223.662 68.4828C223.662 71.2687 221.945 73.5154 219.824 73.5154H182.049C179.928 73.5154 178.21 71.2687 178.21 68.4828C178.21 65.6969 179.928 63.4502 182.049 63.4502H219.824C221.945 63.4502 223.662 65.6969 223.662 68.4828Z" fill="#E72C6C"/>
<path d="M102.078 10.3539C102.078 13.1398 99.837 15.3865 97.0588 15.3865H47.5585C44.7803 15.3865 42.5398 13.1398 42.5398 10.3539C42.5398 7.56799 44.7803 5.32129 47.5585 5.32129H97.0439C99.8221 5.32129 102.063 7.56799 102.063 10.3539H102.078Z" fill="#FFCC48"/>
<path d="M230.981 35.6216H189.756C187.874 33.0454 185.843 30.559 183.647 28.1925H157.045C154.266 28.1925 152.026 25.9458 152.026 23.1599C152.026 20.374 154.266 18.1273 157.045 18.1273H172.534C163.736 11.4321 153.878 6.53435 143.124 3.35902C133.206 0.438314 123.123 -0.879748 112.772 0.633027C102.69 2.10087 93.1752 5.18633 84.0937 9.81453C76.715 13.574 70.113 18.0973 64.3175 23.3996H68.9031C71.6813 23.3996 73.9218 25.6612 73.9218 28.4322C73.9218 31.2031 71.6813 33.4648 68.9031 33.4648H55.012C52.4727 36.73 50.1575 40.2348 48.0664 43.9643H19.9555C17.1773 43.9643 14.9368 46.211 14.9368 48.9969C14.9368 51.7828 17.1773 54.0295 19.9555 54.0295H43.2269C40.0304 62.0577 38.1633 70.4004 37.312 78.9529H56.4309C59.2092 78.9529 61.4497 81.1996 61.4497 83.9855C61.4497 86.7714 59.2092 89.0181 56.4309 89.0181H36.7593C36.7444 93.0022 36.9535 96.9864 37.2223 100.97C37.8049 109.223 39.2687 117.341 42.8385 124.875C48.0664 135.899 56.4757 142.789 68.8583 144.212C70.6656 144.422 72.473 144.526 74.4147 144.706C74.4147 145.74 74.4147 146.698 74.4147 147.657H63.974C61.1957 147.657 58.9552 149.904 58.9552 152.689C58.9552 155.475 61.1957 157.722 63.974 157.722H74.6985C74.7284 158.022 74.7433 158.336 74.7732 158.636C75.4304 163.773 79.1049 167.308 84.1983 167.682C88.7988 168.012 93.4142 167.937 98.0297 167.877C100.599 167.847 103.004 167.053 104.99 165.331C105.692 164.717 106.275 163.968 106.977 163.189C109.023 166.125 111.756 167.712 115.177 167.832C118.822 167.967 122.481 168.087 126.111 167.847C127.858 167.742 129.666 167.038 131.234 166.2C132.758 165.376 133.982 164.028 135.342 162.919L134.953 162.44C135.147 162.68 135.371 162.919 135.551 163.159C137.612 165.87 140.315 167.518 143.736 167.682C147.59 167.862 151.458 167.922 155.312 167.877C156.611 167.862 158.015 167.593 159.195 167.038C163.766 164.911 165.708 161.002 165.932 156.149C166.081 152.764 166.066 149.364 166.096 145.979C166.096 144.721 166.455 144.002 167.963 144.062C169.726 144.122 171.503 143.927 173.266 143.778C179.061 143.283 184.379 141.381 189.084 137.936C196.388 132.589 200.615 125.16 202.99 116.593C203.438 114.99 203.811 113.387 204.14 111.785H211.773C214.551 111.785 216.791 109.538 216.791 106.752C216.791 103.966 214.551 101.719 211.773 101.719H205.678C206.261 95.6833 206.321 89.6022 205.992 83.4912C205.529 74.9538 204.035 66.626 201.392 58.493C199.928 54.0145 198.121 49.7458 196 45.7018H230.951C233.73 45.7018 235.97 43.4551 235.97 40.6692C235.97 37.8833 233.73 35.6366 230.951 35.6366L230.981 35.6216ZM73.9069 79.3573C73.9069 67.0154 83.8846 56.9952 96.2074 56.9952C108.53 56.9952 118.508 67.0004 118.508 79.3573C118.508 91.7141 108.53 101.719 96.2074 101.719C83.8846 101.719 73.9069 91.7141 73.9069 79.3573ZM126.499 126.523C126.499 129.309 124.259 131.556 121.48 131.556C118.702 131.556 116.462 129.309 116.462 126.523V106.737C116.462 103.951 118.702 101.704 121.48 101.704H122.078C124.527 101.704 126.499 103.696 126.499 106.138V126.508V126.523ZM146.768 101.704C134.46 101.704 124.468 91.6991 124.468 79.3423C124.468 66.9855 134.445 56.9802 146.768 56.9802C159.091 56.9802 169.069 66.9855 169.069 79.3423C169.069 91.6991 159.091 101.704 146.768 101.704Z" fill="#E72C6C"/>
<path d="M216.045 35.6216H174.819C172.937 33.0454 170.906 30.559 168.71 28.1925H142.108C139.33 28.1925 137.089 25.9458 137.089 23.1599C137.089 20.374 139.33 18.1273 142.108 18.1273H157.597C148.799 11.4321 138.941 6.53435 128.187 3.35902C118.269 0.438314 108.187 -0.879748 97.8354 0.633027C87.7532 2.10087 78.2385 5.18633 69.157 9.81453C61.7782 13.574 55.1762 18.0973 49.3808 23.3995H53.9663C56.7446 23.3995 58.9851 25.6612 58.9851 28.4322C58.9851 31.2031 56.7446 33.4648 53.9663 33.4648H40.0752C37.5359 36.7299 35.2208 40.2348 33.1296 43.9643H5.01873C2.24051 43.9643 0 46.211 0 48.9969C0 51.7828 2.24051 54.0295 5.01873 54.0295H28.2901C25.0937 62.0577 23.2266 70.4004 22.3752 78.9529H41.4942C44.2724 78.9529 46.5129 81.1996 46.5129 83.9855C46.5129 86.7714 44.2724 89.0181 41.4942 89.0181H21.8225C21.8076 93.0022 22.0167 96.9864 22.2856 100.97C22.8681 109.223 24.3319 117.341 27.9018 124.875C33.1296 135.899 41.539 142.789 53.9215 144.212C55.7289 144.422 57.5362 144.526 59.478 144.706C59.478 145.74 59.478 146.698 59.478 147.657H49.0372C46.259 147.657 44.0185 149.904 44.0185 152.689C44.0185 155.475 46.259 157.722 49.0372 157.722H59.7618C59.7916 158.022 59.8066 158.336 59.8365 158.636C60.4937 163.773 64.1681 167.308 69.2615 167.682C73.862 168.012 78.4775 167.937 83.0929 167.877C85.662 167.847 88.0668 167.053 90.0534 165.331C90.7554 164.717 91.338 163.968 92.04 163.189C94.0863 166.125 96.8197 167.712 100.24 167.832C103.885 167.967 107.544 168.087 111.174 167.847C112.922 167.742 114.729 167.038 116.297 166.2C117.821 165.376 119.046 164.028 120.405 162.919L120.016 162.44C120.211 162.68 120.435 162.919 120.614 163.159C122.675 165.87 125.379 167.518 128.799 167.682C132.653 167.862 136.522 167.922 140.375 167.877C141.675 167.862 143.079 167.593 144.259 167.038C148.829 164.911 150.771 161.002 150.995 156.149C151.145 152.764 151.13 149.364 151.159 145.979C151.159 144.721 151.518 144.002 153.027 144.062C154.789 144.122 156.567 143.927 158.329 143.778C164.125 143.283 169.442 141.381 174.147 137.936C181.451 132.589 185.678 125.16 188.053 116.593C188.501 114.99 188.875 113.387 189.203 111.785H196.836C199.614 111.785 201.855 109.538 201.855 106.752C201.855 103.966 199.614 101.719 196.836 101.719H190.742C191.324 95.6833 191.384 89.6022 191.055 83.4912C190.592 74.9538 189.099 66.626 186.455 58.493C184.991 54.0145 183.184 49.7458 181.063 45.7018H216.015C218.793 45.7018 221.033 43.4551 221.033 40.6692C221.033 37.8833 218.793 35.6366 216.015 35.6366L216.045 35.6216ZM58.9701 79.3573C58.9701 67.0154 68.9478 56.9952 81.2706 56.9952C93.5934 56.9952 103.571 67.0004 103.571 79.3573C103.571 91.7141 93.5934 101.719 81.2706 101.719C68.9478 101.719 58.9701 91.7141 58.9701 79.3573ZM111.562 126.523C111.562 129.309 109.322 131.556 106.544 131.556C103.765 131.556 101.525 129.309 101.525 126.523V106.737C101.525 103.951 103.765 101.704 106.544 101.704H107.141C109.591 101.704 111.562 103.696 111.562 106.138V126.508V126.523ZM131.831 101.704C119.524 101.704 109.531 91.6991 109.531 79.3423C109.531 66.9855 119.509 56.9802 131.831 56.9802C144.154 56.9802 154.132 66.9855 154.132 79.3423C154.132 91.6991 144.154 101.704 131.831 101.704Z" fill="#FFCC48"/>
<path d="M223.662 121.67C223.662 124.456 221.945 126.703 219.824 126.703H182.049C179.928 126.703 178.21 124.456 178.21 121.67C178.21 118.884 179.928 116.638 182.049 116.638H219.824C221.945 116.638 223.662 118.884 223.662 121.67Z" fill="#E72C6C"/>
<path d="M63.257 124.051C63.257 126.837 61.0165 129.084 58.2382 129.084H8.73797C5.95974 129.084 3.71924 126.837 3.71924 124.051C3.71924 121.265 5.95974 119.019 8.73797 119.019H58.2233C61.0015 119.019 63.242 121.265 63.242 124.051H63.257Z" fill="#FFCC48"/>
<path d="M223.513 35.6216H182.288C180.405 33.0454 178.374 30.559 176.178 28.1925H149.576C146.798 28.1925 144.557 25.9458 144.557 23.1599C144.557 20.374 146.798 18.1273 149.576 18.1273H165.065C156.268 11.4321 146.41 6.53435 135.655 3.35902C125.737 0.438314 115.655 -0.879748 105.304 0.633027C95.2214 2.10087 85.7067 5.18633 76.6252 9.81453C69.2465 13.574 62.6445 18.0973 56.849 23.3995H61.4346C64.2128 23.3995 66.4533 25.6612 66.4533 28.4322C66.4533 31.2031 64.2128 33.4648 61.4346 33.4648H47.5435C45.0042 36.7299 42.689 40.2348 40.5979 43.9643H12.487C9.70877 43.9643 7.46826 46.211 7.46826 48.9969C7.46826 51.7828 9.70877 54.0295 12.487 54.0295H35.7584C32.5619 62.0577 30.6948 70.4004 29.8435 78.9529H48.9624C51.7407 78.9529 53.9812 81.1996 53.9812 83.9855C53.9812 86.7714 51.7407 89.0181 48.9624 89.0181H29.2908C29.2759 93.0022 29.485 96.9864 29.7538 100.97C30.3364 109.223 31.8002 117.341 35.37 124.875C40.5979 135.899 49.0072 142.789 61.3898 144.212C63.1971 144.422 65.0045 144.526 66.9462 144.706C66.9462 145.74 66.9462 146.698 66.9462 147.657H56.5055C53.7273 147.657 51.4867 149.904 51.4867 152.689C51.4867 155.475 53.7273 157.722 56.5055 157.722H67.23C67.2599 158.022 67.2748 158.336 67.3047 158.636C67.9619 163.773 71.6364 167.308 76.7298 167.682C81.3303 168.012 85.9457 167.937 90.5612 167.877C93.1303 167.847 95.5351 167.053 97.5217 165.331C97.5665 165.286 97.6113 165.241 97.6412 165.196C97.0586 164.702 96.6703 163.983 96.6703 163.159V143.897C96.6703 142.43 97.8652 141.231 99.329 141.231C100.793 141.231 101.988 142.43 101.988 143.897V163.159C101.988 163.923 101.659 164.612 101.136 165.106C102.929 166.814 105.11 167.742 107.694 167.847C111.338 167.982 114.998 168.102 118.627 167.862C120.375 167.757 122.182 167.053 123.751 166.215C124.393 165.87 124.99 165.406 125.558 164.926C125.14 164.462 124.886 163.848 124.886 163.159V143.897C124.886 142.43 126.081 141.231 127.544 141.231C129.008 141.231 130.203 142.43 130.203 143.897V163.159C130.203 163.803 129.964 164.372 129.591 164.837C131.413 166.544 133.624 167.563 136.268 167.697C140.121 167.877 143.99 167.937 147.843 167.892C149.143 167.877 150.547 167.607 151.727 167.053C156.298 164.926 158.239 161.017 158.463 156.164C158.613 152.779 158.598 149.379 158.628 145.994C158.628 144.736 158.986 144.017 160.495 144.077C162.257 144.137 164.035 143.942 165.797 143.793C171.593 143.298 176.91 141.396 181.615 137.951C188.919 132.604 193.146 125.175 195.521 116.607C195.97 115.005 196.343 113.402 196.672 111.8H204.304C207.082 111.8 209.323 109.553 209.323 106.767C209.323 103.981 207.082 101.734 204.304 101.734H198.21C198.793 95.6982 198.852 89.6172 198.524 83.5062C198.061 74.9687 196.567 66.641 193.923 58.5079C192.459 54.0295 190.652 49.7608 188.531 45.7167H223.483C226.261 45.7167 228.502 43.47 228.502 40.6841C228.502 37.8982 226.261 35.6515 223.483 35.6515L223.513 35.6216ZM88.7389 101.719C76.431 101.719 66.4384 91.7141 66.4384 79.3573C66.4384 67.0004 76.4161 56.9952 88.7389 56.9952C101.062 56.9952 111.039 67.0004 111.039 79.3573C111.039 91.7141 101.062 101.719 88.7389 101.719ZM119.045 126.538C119.045 129.324 116.805 131.57 114.027 131.57C111.249 131.57 109.008 129.324 109.008 126.538V106.752C109.008 103.966 111.249 101.719 114.027 101.719H114.624C117.074 101.719 119.045 103.711 119.045 106.153V126.523V126.538ZM139.315 101.719C127.007 101.719 117.014 91.7141 117.014 79.3573C117.014 67.0004 126.992 56.9952 139.315 56.9952C151.637 56.9952 161.615 67.0004 161.615 79.3573C161.615 91.7141 151.637 101.719 139.315 101.719Z" fill="white"/>
</g>
<defs>
<clipPath id="clip0_501_1336">
<rect width="236" height="168" fill="white"/>
</clipPath>
</defs>
</svg>
