<svg width="249" height="172" viewBox="0 0 249 172" fill="none" xmlns="http://www.w3.org/2000/svg">
<path d="M222.451 82.664H201.974C201.145 60.6896 192.09 40.8121 177.783 26.0816H155.768C152.554 26.0816 149.962 23.4821 149.962 20.2587C149.962 17.0354 152.554 14.4359 155.768 14.4359H163.838C150.256 5.3203 133.909 0 116.318 0C109.648 0 103.151 0.762519 96.9126 2.21824H55.6656C52.4515 2.21824 49.8595 4.81773 49.8595 8.04111C49.8595 11.2645 52.4515 13.864 55.6656 13.864H69.6795C62.5084 18.5431 56.063 24.2446 50.5853 30.778H61.1951C64.4092 30.778 67.0012 33.3775 67.0012 36.6009C67.0012 39.8243 64.4092 42.4238 61.1951 42.4238H42.3946C34.8951 55.196 30.5752 70.0824 30.5752 85.974C30.5752 94.7603 31.8884 103.235 34.3422 111.224H6.97084C3.75678 111.224 1.16479 113.823 1.16479 117.047C1.16479 120.27 3.77406 122.87 6.97084 122.87H38.8522C45.6087 137.115 56.1667 149.211 69.213 157.824H51.5011C48.287 157.824 45.6951 160.424 45.6951 163.647C45.6951 166.87 48.287 169.47 51.5011 169.47H95.7895C102.373 171.082 109.233 171.965 116.301 171.965C133.511 171.965 149.53 166.853 162.974 158.101H152.174C148.96 158.101 146.368 155.502 146.368 152.279C146.368 149.055 148.96 146.456 152.174 146.456H177.247C190.742 132.765 199.693 114.568 201.646 94.3097H222.434C225.648 94.3097 228.24 91.7102 228.24 88.4869C228.24 85.2635 225.631 82.664 222.434 82.664H222.451ZM116.318 131.483C98.848 131.483 84.6785 117.341 84.523 99.8553H148.113C147.957 117.341 133.788 131.483 116.318 131.483ZM90.761 85.6101C90.761 85.6101 90.761 85.6101 90.7437 85.6101C71.0274 76.3212 64.6857 56.5477 73.3429 49.2865C81.81 42.1812 90.3636 51.0714 90.761 51.5047C91.1584 51.0714 99.712 42.1985 108.179 49.2865C116.854 56.5477 110.495 76.3212 90.7783 85.5928L90.761 85.6101ZM142.601 85.6101C142.601 85.6101 142.601 85.6101 142.583 85.6101C122.867 76.3212 116.525 56.5477 125.183 49.2865C133.65 42.1812 142.203 51.0714 142.601 51.5047C142.998 51.0714 151.552 42.1985 160.019 49.2865C168.693 56.5477 162.334 76.3212 142.618 85.5928L142.601 85.6101Z" fill="#32F991"/>
<path d="M243.187 82.664H222.71C221.881 60.6896 212.826 40.8121 198.518 26.0816H176.504C173.29 26.0816 170.698 23.4821 170.698 20.2587C170.698 17.0354 173.29 14.4359 176.504 14.4359H184.574C170.992 5.3203 154.645 0 137.054 0C130.384 0 123.887 0.762519 117.649 2.21824H76.4014C73.1874 2.21824 70.5954 4.81773 70.5954 8.04111C70.5954 11.2645 73.1874 13.864 76.4014 13.864H90.4154C83.2443 18.5431 76.7989 24.2446 71.3212 30.778H81.931C85.1451 30.778 87.737 33.3775 87.737 36.6009C87.737 39.8243 85.1451 42.4238 81.931 42.4238H63.1305C55.631 55.196 51.311 70.0824 51.311 85.974C51.311 94.7603 52.6243 103.235 55.0781 111.224H27.724C24.51 111.224 21.918 113.823 21.918 117.047C21.918 120.27 24.5272 122.87 27.724 122.87H59.6054C66.3618 137.115 76.9198 149.211 89.9661 157.824H72.2543C69.0402 157.824 66.4482 160.424 66.4482 163.647C66.4482 166.87 69.0402 169.47 72.2543 169.47H116.543C123.126 171.082 129.986 171.965 137.054 171.965C154.265 171.965 170.283 166.853 183.727 158.101H172.927C169.713 158.101 167.121 155.502 167.121 152.279C167.121 149.055 169.713 146.456 172.927 146.456H198C211.496 132.765 220.447 114.568 222.399 94.3097H243.187C246.401 94.3097 248.993 91.7102 248.993 88.4869C248.993 85.2635 246.384 82.664 243.187 82.664ZM137.054 131.483C119.584 131.483 105.414 117.341 105.259 99.8553H168.849C168.693 117.341 154.524 131.483 137.054 131.483ZM111.497 85.6101C111.497 85.6101 111.497 85.6101 111.48 85.6101C91.7633 76.3212 85.4215 56.5477 94.0788 49.2865C102.546 42.1812 111.099 51.0714 111.497 51.5047C111.894 51.0714 120.448 42.1985 128.915 49.2865C137.59 56.5477 131.23 76.3212 111.514 85.5928L111.497 85.6101ZM163.337 85.6101C163.337 85.6101 163.337 85.6101 163.319 85.6101C143.603 76.3212 137.261 56.5477 145.918 49.2865C154.386 42.1812 162.939 51.0714 163.337 51.5047C163.734 51.0714 172.288 42.1985 180.755 49.2865C189.429 56.5477 183.07 76.3212 163.354 85.5928L163.337 85.6101Z" fill="#E72C6C"/>
<path d="M232.819 82.664H212.342C211.513 60.6896 202.458 40.8121 188.15 26.0816H166.136C162.922 26.0816 160.33 23.4821 160.33 20.2587C160.33 17.0354 162.922 14.4359 166.136 14.4359H174.206C160.624 5.3203 144.277 0 126.686 0C120.016 0 113.519 0.762519 107.281 2.21824H66.0335C62.8194 2.21824 60.2274 4.81773 60.2274 8.04111C60.2274 11.2645 62.8194 13.864 66.0335 13.864H80.0475C72.8763 18.5431 66.4309 24.2446 60.9532 30.778H71.563C74.7771 30.778 77.3691 33.3775 77.3691 36.6009C77.3691 39.8243 74.7771 42.4238 71.563 42.4238H52.7625C45.2631 55.196 40.9431 70.0824 40.9431 85.974C40.9431 94.7603 42.2564 103.235 44.7101 111.224H17.3388C14.1247 111.224 11.5327 113.823 11.5327 117.047C11.5327 120.27 14.142 122.87 17.3388 122.87H49.2201C55.9766 137.115 66.5346 149.211 79.5809 157.824H61.869C58.655 157.824 56.063 160.424 56.063 163.647C56.063 166.87 58.655 169.47 61.869 169.47H106.157C112.741 171.082 119.601 171.965 126.669 171.965C143.879 171.965 159.898 166.853 173.342 158.101H162.542C159.328 158.101 156.736 155.502 156.736 152.279C156.736 149.055 159.328 146.456 162.542 146.456H187.615C201.11 132.765 210.061 114.568 212.014 94.3097H232.802C236.016 94.3097 238.608 91.7102 238.608 88.4869C238.608 85.2635 235.998 82.664 232.802 82.664H232.819ZM126.686 131.483C109.216 131.483 95.0464 117.341 94.8909 99.8553H158.481C158.325 117.341 144.156 131.483 126.686 131.483ZM101.129 85.6101C101.129 85.6101 101.129 85.6101 101.112 85.6101C81.3953 76.3212 75.0536 56.5477 83.7108 49.2865C92.1779 42.1812 100.731 51.0714 101.129 51.5047C101.526 51.0714 110.08 42.1985 118.547 49.2865C127.222 56.5477 120.863 76.3212 101.146 85.5928L101.129 85.6101ZM152.969 85.6101C152.969 85.6101 152.969 85.6101 152.951 85.6101C133.235 76.3212 126.893 56.5477 135.55 49.2865C144.018 42.1812 152.571 51.0714 152.969 51.5047C153.366 51.0714 161.92 42.1985 170.387 49.2865C179.061 56.5477 172.702 76.3212 152.986 85.5928L152.969 85.6101Z" fill="white"/>
<path d="M68.8847 74.2418C68.8847 77.4652 66.2927 80.0647 63.0787 80.0647H5.81312C2.59906 80.0647 0.00708008 77.4652 0.00708008 74.2418C0.00708008 71.0184 2.59906 68.4189 5.81312 68.4189H63.0787C66.2927 68.4189 68.8847 71.0184 68.8847 74.2418Z" fill="#32F991"/>
<path d="M78.1121 138.363C78.1121 141.586 75.5201 144.186 72.3061 144.186H36.4849C33.2708 144.186 30.6788 141.586 30.6788 138.363C30.6788 135.14 33.2708 132.54 36.4849 132.54H72.3061C75.5201 132.54 78.1121 135.14 78.1121 138.363Z" fill="#32F991"/>
<path d="M234.201 20.5533C234.201 23.7767 231.592 26.3762 228.395 26.3762H171.147C167.933 26.3762 165.341 23.7767 165.341 20.5533C165.341 17.33 167.933 14.7305 171.147 14.7305H228.395C231.609 14.7305 234.201 17.33 234.201 20.5533Z" fill="#E72C6C"/>
</svg>
