<svg width="238" height="175" viewBox="0 0 238 175" fill="none" xmlns="http://www.w3.org/2000/svg">
<path d="M49.6991 61.5781C49.6991 64.8816 47.0361 67.5458 43.7339 67.5458H6.93099C3.62884 67.5458 0.96582 64.8816 0.96582 61.5781C0.96582 58.2745 3.62884 55.6104 6.93099 55.6104H43.7339C47.0361 55.6104 49.6991 58.2745 49.6991 61.5781Z" fill="#F4F915"/>
<path d="M164.658 76.4615C167.268 79.0724 167.268 83.2995 164.658 85.9104C162.049 88.5213 157.823 88.5213 155.213 85.9104L146.301 76.9943L137.389 85.9104C134.779 88.5213 130.554 88.5213 127.944 85.9104C125.334 83.2995 125.334 79.0724 127.944 76.4615L136.856 67.5454L127.944 58.6294C125.334 56.0185 125.334 51.7913 127.944 49.1805C130.554 46.5696 134.779 46.5696 137.389 49.1805L146.301 58.0965L155.213 49.1805C157.823 46.5696 162.049 46.5696 164.658 49.1805C167.268 51.7913 167.268 56.0185 164.658 58.6294L155.746 67.5454L164.658 76.4615ZM217.706 92.553H201.39C201.461 91.0789 201.532 89.6225 201.532 88.1305C201.532 60.0502 188.395 35.0604 167.943 18.9156H142.697C139.395 18.9156 136.732 16.2336 136.732 12.9478C136.732 9.66203 139.395 6.98011 142.697 6.98011H147.846C137.282 2.48655 125.654 0 113.44 0C95.26 0 78.3764 5.50594 64.3512 14.9371H29.3058C26.0036 14.9371 23.3406 17.619 23.3406 20.9048C23.3406 24.1906 26.0036 26.8725 29.3058 26.8725H50.1306C34.7916 42.7332 25.3468 64.3129 25.3468 88.1305C25.3468 92.3399 25.6486 96.4605 26.2167 100.51H48.0712C51.3734 100.51 54.0364 103.174 54.0364 106.478C54.0364 109.781 51.3556 112.445 48.0712 112.445H28.7554C29.6786 115.66 30.7793 118.786 32.0398 121.823H9.97225C6.6701 121.823 4.00708 124.487 4.00708 127.791C4.00708 131.095 6.6701 133.759 9.97225 133.759H38.076C50.2371 153.811 70.1743 168.624 93.6977 174.005C93.6977 173.81 93.6621 173.615 93.6621 173.402V111.167C93.6621 101.753 101.296 94.116 110.705 94.116H111.274C120.683 94.116 128.317 101.753 128.317 111.167V173.437C128.317 173.97 128.281 174.485 128.228 175.018C151.308 171.093 171.316 158.198 184.578 140.046H173.056C169.754 140.046 167.091 137.382 167.091 134.078C167.091 130.775 169.754 128.111 173.056 128.111H191.91C195.656 120.775 198.372 112.854 199.952 104.506H217.67C220.972 104.506 223.635 101.842 223.635 98.5385C223.635 95.235 220.955 92.5708 217.67 92.5708L217.706 92.553ZM97.1951 76.4615C99.8049 79.0724 99.8049 83.2995 97.1951 85.9104C94.5853 88.5213 90.36 88.5213 87.7502 85.9104L78.838 76.9943L69.9257 85.9104C67.316 88.5213 63.0907 88.5213 60.4809 85.9104C57.8711 83.2995 57.8711 79.0724 60.4809 76.4615L69.3931 67.5454L60.4809 58.6294C57.8711 56.0185 57.8711 51.7913 60.4809 49.1805C63.0907 46.5696 67.316 46.5696 69.9257 49.1805L78.838 58.0965L87.7502 49.1805C90.36 46.5696 94.5853 46.5696 97.1951 49.1805C99.8049 51.7913 99.8049 56.0185 97.1951 58.6294L88.2828 67.5454L97.1951 76.4615Z" fill="#F4F915"/>
<path d="M178.962 76.4615C181.572 79.0724 181.572 83.2995 178.962 85.9104C176.353 88.5213 172.127 88.5213 169.518 85.9104L160.605 76.9943L151.693 85.9104C149.083 88.5213 144.858 88.5213 142.248 85.9104C139.639 83.2995 139.639 79.0724 142.248 76.4615L151.161 67.5454L142.248 58.6294C139.639 56.0185 139.639 51.7913 142.248 49.1805C144.858 46.5696 149.083 46.5696 151.693 49.1805L160.605 58.0965L169.518 49.1805C172.127 46.5696 176.353 46.5696 178.962 49.1805C181.572 51.7913 181.572 56.0185 178.962 58.6294L170.05 67.5454L178.962 76.4615ZM232.01 92.553H215.694C215.765 91.0789 215.836 89.6225 215.836 88.1305C215.836 60.0502 202.699 35.0604 182.247 18.9156H157.001C153.699 18.9156 151.036 16.2336 151.036 12.9478C151.036 9.66203 153.699 6.98011 157.001 6.98011H162.15C151.587 2.48655 139.958 0 127.744 0C109.564 0 92.6806 5.50594 78.6553 14.9371H43.61C40.3078 14.9371 37.6448 17.619 37.6448 20.9048C37.6448 24.1906 40.3078 26.8725 43.61 26.8725H64.4348C49.0958 42.7332 39.651 64.3129 39.651 88.1305C39.651 92.3399 39.9528 96.4605 40.5209 100.51H62.3754C65.6776 100.51 68.3406 103.174 68.3406 106.478C68.3406 109.781 65.6598 112.445 62.3754 112.445H43.0774C44.0006 115.66 45.1013 118.786 46.3618 121.823H24.2764C20.9743 121.823 18.3113 124.487 18.3113 127.791C18.3113 131.095 20.9743 133.759 24.2764 133.759H52.3802C64.5413 153.811 84.4785 168.624 108.002 174.005C108.002 173.81 107.966 173.615 107.966 173.402V111.167C107.966 101.753 115.6 94.116 125.01 94.116H125.578C134.987 94.116 142.621 101.753 142.621 111.167V173.437C142.621 173.97 142.586 174.485 142.532 175.018C165.612 171.093 185.62 158.198 198.882 140.046H187.36C184.058 140.046 181.395 137.382 181.395 134.078C181.395 130.775 184.058 128.111 187.36 128.111H206.214C209.96 120.775 212.676 112.854 214.256 104.506H231.974C235.277 104.506 237.94 101.842 237.94 98.5385C237.94 95.235 235.259 92.5708 231.974 92.5708L232.01 92.553ZM111.499 76.4615C114.109 79.0724 114.109 83.2995 111.499 85.9104C108.89 88.5213 104.664 88.5213 102.054 85.9104L93.1422 76.9943L84.2299 85.9104C81.6202 88.5213 77.3949 88.5213 74.7851 85.9104C72.1753 83.2995 72.1753 79.0724 74.7851 76.4615L83.6973 67.5454L74.7851 58.6294C72.1753 56.0185 72.1753 51.7913 74.7851 49.1805C77.3949 46.5696 81.6202 46.5696 84.2299 49.1805L93.1422 58.0965L102.054 49.1805C104.664 46.5696 108.89 46.5696 111.499 49.1805C114.109 51.7913 114.109 56.0185 111.499 58.6294L102.587 67.5454L111.499 76.4615Z" fill="#E72C6C"/>
<path d="M171.31 76.4615C173.92 79.0724 173.92 83.2995 171.31 85.9104C168.701 88.5213 164.475 88.5213 161.866 85.9104L152.953 76.9943L144.041 85.9104C141.431 88.5213 137.206 88.5213 134.596 85.9104C131.986 83.2995 131.986 79.0724 134.596 76.4615L143.508 67.5454L134.596 58.6294C131.986 56.0185 131.986 51.7913 134.596 49.1805C137.206 46.5696 141.431 46.5696 144.041 49.1805L152.953 58.0965L161.866 49.1805C164.475 46.5696 168.701 46.5696 171.31 49.1805C173.92 51.7913 173.92 56.0185 171.31 58.6294L162.398 67.5454L171.31 76.4615ZM224.358 92.553H208.042C208.113 91.0789 208.184 89.6225 208.184 88.1305C208.184 60.0502 195.047 35.0604 174.595 18.9156H149.349C146.047 18.9156 143.384 16.2336 143.384 12.9478C143.384 9.66203 146.047 6.98011 149.349 6.98011H154.498C143.935 2.48655 132.306 0 120.092 0C101.912 0 85.0285 5.50594 71.0033 14.9371H35.9579C32.6557 14.9371 29.9927 17.619 29.9927 20.9048C29.9927 24.1906 32.6557 26.8725 35.9579 26.8725H56.7827C41.4437 42.7332 31.9989 64.3129 31.9989 88.1305C31.9989 92.3399 32.3007 96.4605 32.8688 100.51H54.7233C58.0255 100.51 60.6885 103.174 60.6885 106.478C60.6885 109.781 58.0077 112.445 54.7233 112.445H35.4253C36.3485 115.66 37.4492 118.786 38.7097 121.823H16.6243C13.3222 121.823 10.6592 124.487 10.6592 127.791C10.6592 131.095 13.3222 133.759 16.6243 133.759H44.7281C56.8892 153.811 76.8264 168.624 100.35 174.005C100.35 173.81 100.314 173.615 100.314 173.402V111.167C100.314 101.753 107.948 94.116 117.358 94.116H117.926C127.335 94.116 134.969 101.753 134.969 111.167V173.437C134.969 173.97 134.934 174.485 134.88 175.018C157.96 171.093 177.968 158.198 191.23 140.046H179.708C176.406 140.046 173.743 137.382 173.743 134.078C173.743 130.775 176.406 128.111 179.708 128.111H198.562C202.308 120.775 205.024 112.854 206.604 104.506H224.322C227.624 104.506 230.287 101.842 230.287 98.5385C230.287 95.235 227.607 92.5708 224.322 92.5708L224.358 92.553ZM103.847 76.4615C106.457 79.0724 106.457 83.2995 103.847 85.9104C101.237 88.5213 97.0121 88.5213 94.4023 85.9104L85.4901 76.9943L76.5779 85.9104C73.9681 88.5213 69.7428 88.5213 67.133 85.9104C64.5232 83.2995 64.5232 79.0724 67.133 76.4615L76.0452 67.5454L67.133 58.6294C64.5232 56.0185 64.5232 51.7913 67.133 49.1805C69.7428 46.5696 73.9681 46.5696 76.5779 49.1805L85.4901 58.0965L94.4023 49.1805C97.0121 46.5696 101.237 46.5696 103.847 49.1805C106.457 51.7913 106.457 56.0185 103.847 58.6294L94.935 67.5454L103.847 76.4615Z" fill="white"/>
</svg>
