<svg width="245" height="168" viewBox="0 0 245 168" fill="none" xmlns="http://www.w3.org/2000/svg">
<path d="M67.2668 115.695C67.2668 118.844 64.7359 121.383 61.5976 121.383H5.68099C2.54264 121.383 0.0117188 118.844 0.0117188 115.695C0.0117188 112.547 2.54264 110.008 5.68099 110.008H61.5976C64.7359 110.008 67.2668 112.547 67.2668 115.695Z" fill="#0094FF"/>
<path d="M244.988 35.7666C244.988 38.915 242.44 41.454 239.319 41.454H183.419C180.281 41.454 177.75 38.915 177.75 35.7666C177.75 32.6181 180.281 30.0791 183.419 30.0791H239.319C242.457 30.0791 244.988 32.6181 244.988 35.7666Z" fill="#E72C6C"/>
<path d="M193.661 123.482H205.877C212.137 111.701 215.697 98.261 215.697 83.9915C215.697 59.5152 205.253 37.4932 188.616 22.1405H163.408C160.27 22.1405 157.739 19.6014 157.739 16.453C157.739 13.3046 160.27 10.7655 163.408 10.7655H172.992C160.877 3.91013 146.89 0 131.991 0C111.575 0 92.8796 7.32937 78.3521 19.4999H55.1182C51.9799 19.4999 49.4489 22.0389 49.4489 25.1873C49.4489 28.3357 51.9799 30.8748 55.1182 30.8748H67.1317C55.3375 45.3473 48.2678 63.8315 48.2678 83.9746C48.2678 86.3275 48.3859 88.6465 48.5715 90.9485H38.9034C35.7651 90.9485 33.2341 93.4876 33.2341 96.636C33.2341 99.7844 35.7651 102.323 38.9034 102.323H50.2926C55.4388 125.463 70.0844 144.996 89.9269 156.591H76.4455C73.3071 156.591 70.7762 159.13 70.7762 162.279C70.7762 165.427 73.3071 167.966 76.4455 167.966H132.345C132.345 167.966 132.446 167.966 132.497 167.966C159.46 167.797 183.386 154.848 198.588 134.857H193.661C190.523 134.857 187.992 132.318 187.992 129.17C187.992 126.021 190.523 123.482 193.661 123.482ZM75.0619 67.7586C74.1001 69.8406 72.0585 71.0763 69.8988 71.0763C69.1058 71.0763 68.2959 70.907 67.5366 70.5515C64.6851 69.2482 63.4365 65.8628 64.7526 63.0021C69.3926 52.8798 79.5501 46.3291 90.6693 46.3291C101.772 46.3291 111.929 52.8798 116.569 63.0021C117.868 65.8628 116.637 69.2312 113.785 70.5515C110.95 71.8718 107.576 70.6192 106.26 67.7586C103.459 61.6649 97.3509 57.7209 90.6693 57.7209C83.9876 57.7209 77.8628 61.6649 75.0619 67.7586ZM131.974 140.358C107.137 140.358 86.9235 120.08 86.9235 95.1633C86.9235 94.8756 86.9235 94.5878 86.9235 94.3001C86.9741 91.2024 89.505 88.7142 92.5928 88.7142C92.6265 88.7142 92.6603 88.7142 92.7109 88.7142C95.8492 88.7819 98.3295 91.3717 98.2789 94.5032V95.1464C98.2789 113.783 113.397 128.966 131.974 128.966C150.551 128.966 165.686 113.8 165.686 95.1464V94.5032C165.618 91.3548 168.116 88.7649 171.237 88.6972C174.359 88.6295 176.957 91.1347 177.008 94.2831C177.008 94.5709 177.008 94.8587 177.008 95.1464C177.008 120.063 156.794 140.341 131.957 140.341L131.974 140.358ZM173.296 57.7209C166.614 57.7209 160.489 61.6649 157.688 67.7586C156.743 69.8406 154.685 71.0763 152.525 71.0763C151.732 71.0763 150.922 70.907 150.163 70.5515C147.311 69.2482 146.063 65.8628 147.379 63.0021C152.019 52.8798 162.193 46.3291 173.296 46.3291C184.398 46.3291 194.555 52.8798 199.195 63.0021C200.495 65.8628 199.263 69.2312 196.411 70.5515C193.56 71.8718 190.202 70.6192 188.886 67.7586C186.085 61.6649 179.977 57.7209 173.296 57.7209Z" fill="white"/>
<path d="M90.6692 46.3291C89.0157 46.3291 87.3959 46.4984 85.8098 46.7692C94.938 48.3603 102.902 54.3694 106.85 63.0021C107.66 64.7626 107.491 66.7261 106.563 68.2834C108.031 70.7547 111.119 71.7872 113.785 70.5516C116.636 69.2313 117.885 65.8628 116.569 63.0021C111.929 52.8798 101.772 46.3291 90.6692 46.3291Z" fill="#0094FF"/>
<path d="M67.5534 70.5513C68.3126 70.9068 69.1225 71.0761 69.9156 71.0761C72.0584 71.0761 74.1169 69.8404 75.0786 67.7584C77.1709 63.1881 81.136 59.8196 85.8098 58.4316C84.2575 57.9746 82.6208 57.7207 80.9504 57.7207C74.2688 57.7207 68.1439 61.6647 65.343 67.7584C65.2587 67.9446 65.1574 68.1308 65.0393 68.3001C65.613 69.248 66.4566 70.0605 67.5365 70.5513H67.5534Z" fill="#0094FF"/>
<path d="M177.041 95.1634C177.041 94.8756 177.041 94.5879 177.041 94.3001C176.991 91.1517 174.392 88.6465 171.271 88.7142C169.229 88.7481 167.475 89.8822 166.513 91.5072C167.002 92.3197 167.306 93.2676 167.323 94.2832C167.323 94.571 167.323 94.8587 167.323 95.1465C167.323 118.421 149.691 137.633 127.132 140.071C128.735 140.24 130.354 140.341 131.991 140.341C156.828 140.341 177.041 120.063 177.041 95.1465V95.1634Z" fill="#0094FF"/>
<path d="M98.2789 95.1637V94.5205C98.3464 91.3721 95.8492 88.7822 92.7277 88.7314C92.694 88.7314 92.6602 88.7314 92.6096 88.7314C90.5343 88.7314 88.7457 89.8656 87.7502 91.5244C88.2733 92.4046 88.577 93.4202 88.5601 94.5205V95.1637C88.5601 113.8 103.678 128.984 122.255 128.984C123.909 128.984 125.529 128.831 127.115 128.594C110.832 126.225 98.2789 112.158 98.2789 95.1806V95.1637Z" fill="#0094FF"/>
<path d="M163.594 57.7041C156.912 57.7041 150.787 61.6481 147.986 67.7418C147.902 67.928 147.801 68.1142 147.683 68.2834C148.256 69.2314 149.1 70.0438 150.18 70.5347C150.939 70.8902 151.749 71.0595 152.542 71.0595C154.685 71.0595 156.743 69.8238 157.705 67.7418C159.797 63.1715 163.762 59.803 168.436 58.415C166.884 57.958 165.247 57.7041 163.577 57.7041H163.594Z" fill="#0094FF"/>
<path d="M173.312 46.3291C171.659 46.3291 170.039 46.4984 168.453 46.7692C177.581 48.3603 185.545 54.3694 189.494 63.0021C190.303 64.7626 190.135 66.7261 189.207 68.2834C190.675 70.7547 193.762 71.7872 196.428 70.5516C199.28 69.2313 200.528 65.8628 199.212 63.0021C194.572 52.8798 184.398 46.3291 173.312 46.3291Z" fill="#0094FF"/>
<path d="M80.208 156.609H89.9268C70.0843 145.014 55.4387 125.48 50.2925 102.341H40.5737C45.7199 125.48 60.3656 145.014 80.208 156.609Z" fill="#0094FF"/>
<path d="M70.7761 162.296C70.7761 159.147 73.307 156.608 76.4454 156.608H66.7266C63.5883 156.608 61.0574 159.147 61.0574 162.296C61.0574 165.444 63.5883 167.983 66.7266 167.983H76.4454C73.307 167.983 70.7761 165.444 70.7761 162.296Z" fill="#0094FF"/>
<path d="M127.098 0.152343C125.495 0.0677078 123.892 0 122.272 0C101.856 0 83.1608 7.32937 68.6333 19.4998H78.3521C91.7153 8.31113 108.605 1.23567 127.098 0.152343Z" fill="#0094FF"/>
<path d="M33.2341 96.6694C33.2341 93.521 35.7651 90.982 38.9034 90.982H48.5715C48.3859 88.6799 48.2678 86.3609 48.2678 84.0081C48.2678 63.865 55.3375 45.3807 67.1317 30.9082H57.4129C45.6188 45.3807 38.5491 63.865 38.5491 84.0081C38.5491 86.3609 38.6672 88.6799 38.8528 90.982H29.1847C26.0463 90.982 23.5154 93.521 23.5154 96.6694C23.5154 99.8178 26.0463 102.357 29.1847 102.357H38.9034C35.7651 102.357 33.2341 99.8178 33.2341 96.6694Z" fill="#0094FF"/>
<path d="M45.3826 30.8915H55.1014C51.9631 30.8915 49.4321 28.3525 49.4321 25.2041C49.4321 22.0556 51.9631 19.5166 55.1014 19.5166H45.3826C42.2443 19.5166 39.7134 22.0556 39.7134 25.2041C39.7134 28.3525 42.2443 30.8915 45.3826 30.8915Z" fill="#0094FF"/>
<path d="M106.26 67.7584C107.576 70.619 110.934 71.8716 113.785 70.5513C114.882 70.0435 115.726 69.248 116.299 68.2831C116.198 68.1139 116.08 67.9446 115.996 67.7584C113.195 61.6647 107.087 57.7207 100.405 57.7207C98.7346 57.7207 97.098 57.9746 95.5457 58.4316C100.219 59.8196 104.185 63.1881 106.277 67.7584H106.26Z" fill="#E72C6C"/>
<path d="M172.992 10.7655H163.408C160.27 10.7655 157.739 13.3046 157.739 16.453C157.739 19.6014 160.27 22.1405 163.408 22.1405H173.127C169.988 22.1405 167.457 19.6014 167.457 16.453C167.457 13.3046 169.988 10.7655 173.127 10.7655H182.711C170.596 3.91013 156.608 0 141.71 0C140.073 0 138.436 0.0677078 136.816 0.152343C149.91 0.897128 162.193 4.65491 172.992 10.7655Z" fill="#E72C6C"/>
<path d="M173.312 46.3291C162.21 46.3291 152.036 52.8798 147.396 63.0022C146.096 65.8628 147.345 69.2313 150.18 70.5516C150.939 70.907 151.749 71.0763 152.542 71.0763C154.499 71.0763 156.355 70.0438 157.401 68.3003C156.473 66.743 156.305 64.7795 157.114 63.0191C161.063 54.3863 169.027 48.3773 178.155 46.7861C176.569 46.5153 174.949 46.346 173.295 46.346L173.312 46.3291Z" fill="#E72C6C"/>
<path d="M64.7526 63.0018C63.4534 65.8625 64.702 69.2309 67.5366 70.5513C68.2959 70.9067 69.1058 71.076 69.8988 71.076C71.8561 71.076 73.7121 70.0434 74.7582 68.3C73.8302 66.7427 73.6615 64.7792 74.4714 63.0188C78.4196 54.386 86.3836 48.3769 95.5118 46.7858C93.9258 46.515 92.306 46.3457 90.6524 46.3457C79.5501 46.3457 69.3758 52.8964 64.7358 63.0188L64.7526 63.0018Z" fill="#E72C6C"/>
<path d="M141.71 128.967C160.287 128.967 175.422 113.8 175.422 95.1468V94.5035C175.388 93.4033 175.692 92.3877 176.215 91.5075C175.202 89.7979 173.363 88.6637 171.254 88.7145C168.116 88.7822 165.635 91.3721 165.686 94.5205V95.1637C165.686 112.141 153.133 126.208 136.85 128.577C138.436 128.814 140.056 128.967 141.71 128.967Z" fill="#E72C6C"/>
<path d="M96.6592 95.1637C96.6592 94.8759 96.6592 94.5882 96.6592 94.3004C96.6761 93.2848 96.9798 92.3369 97.4691 91.5244C96.5074 89.8825 94.7526 88.7653 92.711 88.7314C92.6772 88.7314 92.6435 88.7314 92.5929 88.7314C89.5051 88.7314 86.9911 91.2028 86.9236 94.3173C86.9236 94.6051 86.9236 94.8929 86.9236 95.1806C86.9236 120.097 107.137 140.376 131.974 140.376C133.611 140.376 135.231 140.274 136.833 140.105C114.274 137.667 96.6423 118.455 96.6423 95.1806L96.6592 95.1637Z" fill="#E72C6C"/>
<path d="M198.352 22.1572H188.633C205.287 37.51 215.714 59.5319 215.714 84.0083C215.714 98.2946 212.154 111.735 205.894 123.499H215.613C221.873 111.718 225.433 98.2777 225.433 84.0083C225.433 59.5319 214.988 37.51 198.352 22.1572Z" fill="#E72C6C"/>
<path d="M197.711 129.17C197.711 126.021 200.241 123.482 203.38 123.482H193.661C190.523 123.482 187.992 126.021 187.992 129.17C187.992 132.318 190.523 134.857 193.661 134.857H198.588C183.386 154.848 159.46 167.797 132.497 167.966C132.446 167.966 132.396 167.966 132.345 167.966H142.064C142.064 167.966 142.165 167.966 142.216 167.966C169.179 167.797 193.104 154.848 208.307 134.857H203.38C200.241 134.857 197.711 132.318 197.711 129.17Z" fill="#E72C6C"/>
<path d="M196.428 70.5513C197.508 70.0435 198.369 69.248 198.942 68.2831C198.841 68.1139 198.723 67.9446 198.639 67.7584C195.838 61.6647 189.73 57.7207 183.048 57.7207C181.378 57.7207 179.741 57.9746 178.189 58.4316C182.862 59.8196 186.828 63.1881 188.92 67.7584C190.236 70.619 193.594 71.8716 196.445 70.5513H196.428Z" fill="#E72C6C"/>
<path d="M235.118 100.8C235.118 103.948 232.587 106.487 229.448 106.487H194.471C191.333 106.487 188.802 103.948 188.802 100.8C188.802 97.6513 191.333 95.1123 194.471 95.1123H229.448C232.587 95.1123 235.118 97.6513 235.118 100.8Z" fill="#E72C6C"/>
<path d="M92.1204 142.66C92.1204 145.809 89.5895 148.348 86.4511 148.348H51.4569C48.3185 148.348 45.7876 145.809 45.7876 142.66C45.7876 139.512 48.3185 136.973 51.4569 136.973H86.4343C89.5726 136.973 92.1035 139.512 92.1035 142.66H92.1204Z" fill="#0094FF"/>
</svg>
